<svg width="72" height="72" viewBox="0 0 72 72" fill="none" xmlns="http://www.w3.org/2000/svg">
<path d="M72 21.7977C69.9586 24.0544 67.8431 26.2293 64.9777 27.4764C62.4168 28.5899 59.7667 29.0649 56.9756 28.716C56.7752 28.6938 56.5673 28.716 56.3966 28.716C56.4857 29.9557 56.6713 31.1582 56.649 32.3608C56.5451 38.1285 54.1474 42.7457 49.2927 45.8708C36.3171 54.2292 23.2895 62.5059 10.2693 70.7826C9.42308 71.3171 8.41354 71.5992 7.47822 72H5.5111C4.30855 71.6288 3.15054 71.1983 2.17811 70.3372C0.0625237 68.4592 -0.687212 65.1782 0.715758 62.7286C2.25234 60.0563 3.97451 57.4805 5.63729 54.8824C12.3626 44.349 19.1103 33.838 25.8133 23.2898C27.7285 20.276 30.1559 17.9155 33.5037 16.5867C36.3467 15.4584 39.2789 15.0799 42.3075 15.5772C42.6267 15.6292 42.9459 15.6589 43.3468 15.7108C43.2948 15.0427 43.2057 14.4192 43.1909 13.7957C43.1166 9.3344 44.6829 5.52636 47.7932 2.34186C48.3499 1.77028 48.9141 1.20613 49.4783 0.649399C50.3913 -0.248793 51.0965 -0.211678 51.9947 0.738476C53.4274 2.25278 54.5185 3.98236 55.246 5.93463C55.3128 6.1202 55.4019 6.30578 55.4836 6.50621C56.5228 5.75647 57.4878 4.97705 58.527 4.3164C62.0901 2.05236 65.9873 0.693937 70.1442 0.0332836C71.0201 -0.107755 71.5695 0.293091 71.9852 0.998283V2.12659C71.9406 2.20824 71.8738 2.28248 71.859 2.36413C70.983 7.44894 69.105 12.0809 65.7794 16.082C65.6681 16.2156 65.5864 16.3715 65.4825 16.5199C68.9788 18.0417 70.6564 19.1551 71.9852 20.8253V21.8126L72 21.7977ZM12.7783 48.9662C12.036 50.1242 11.3457 51.2005 10.6553 52.2843C8.2725 56.0107 5.88225 59.7297 3.51428 63.4635C2.51215 65.0446 2.68289 66.7742 3.89285 68.0435C5.03602 69.2386 6.84726 69.5355 8.33188 68.6299C10.8261 67.1082 13.2757 65.5122 15.8738 63.8643C15.3838 63.4263 14.9385 63.0478 14.5228 62.6395C13.6691 61.8007 12.8154 60.9693 11.9989 60.1008C11.4273 59.4921 11.4125 58.7647 11.8727 58.1857C12.3107 57.6438 13.0456 57.4953 13.6394 57.859C13.8918 58.0149 14.1219 58.2302 14.3372 58.438C15.6288 59.7222 16.9204 61.0213 18.2418 62.3426C22.2799 59.7668 26.2884 57.2058 30.3637 54.6077C29.1092 53.3607 27.966 52.1507 26.7412 51.0298C25.0339 49.4635 25.2789 48.7732 25.8876 48.1719C26.4963 47.5632 27.1792 47.244 28.7974 49.033C29.5175 49.8347 30.3192 50.5622 31.0763 51.3267C31.6479 51.9057 32.2121 52.4922 32.7762 53.0712C36.8589 50.4657 40.86 47.9121 44.9279 45.3215C43.3393 43.7403 41.7953 42.2038 40.2587 40.6672C40.0583 40.4668 39.8653 40.2663 39.6946 40.0437C39.2937 39.5166 39.2789 38.9673 39.6352 38.418C40.0063 37.8613 40.5631 37.6757 41.1644 37.8687C41.5207 37.98 41.8473 38.2621 42.1219 38.5368C43.8664 40.2663 45.596 42.0108 47.3552 43.77C51.7126 40.9938 53.9767 37.0447 53.7911 31.9451C53.5684 25.7839 50.4655 21.4043 44.72 19.1403C40.3701 17.433 36.1389 17.9452 32.0933 20.5061C32.3531 20.7808 32.5238 20.9664 32.702 21.1445C34.3277 22.7702 35.9459 24.3884 37.5716 26.014C37.9798 26.4223 38.3955 26.8974 38.158 27.4838C37.9873 27.9144 37.6161 28.3449 37.2153 28.575C36.6288 28.909 36.0869 28.5527 35.649 28.1222C33.9342 26.4223 32.2343 24.715 30.527 23.0077C30.3489 22.8295 30.1633 22.6662 29.8441 22.3693C27.7433 25.6206 25.6946 28.7977 23.6384 31.9748C25.5981 33.9419 27.5207 35.8645 29.4358 37.787C29.6362 37.9875 29.8367 38.1879 29.9926 38.418C30.5344 39.2048 30.1856 40.2144 29.2874 40.5262C28.5747 40.7785 28.07 40.4297 27.6023 39.962C25.947 38.3067 24.2916 36.6513 22.6288 34.996C22.4507 34.8252 22.2725 34.6545 22.0572 34.4541C19.4517 38.5219 16.8982 42.5155 14.2778 46.6131C14.4931 46.7764 14.7009 46.8952 14.8642 47.0585C15.8812 48.068 16.9056 49.0627 17.8854 50.1019C18.4793 50.7329 18.457 51.5791 17.9151 52.121C17.3658 52.6629 16.5419 52.6555 15.896 52.0913C15.6808 51.9057 15.4952 51.6979 15.2948 51.4975C14.4708 50.6735 13.6468 49.8495 12.7783 48.9736V48.9662ZM53.3902 20.521C61.9491 18.1901 67.1675 11.4722 68.7116 3.28459C60.3754 4.8954 53.7837 10.1435 51.4602 18.5984C51.6681 18.4499 51.7868 18.2124 51.965 18.0268C53.7465 16.2304 55.5281 14.434 57.3319 12.6599C57.6214 12.3779 57.9851 12.0884 58.3637 11.9844C59.0095 11.8063 59.5588 12.0809 59.8929 12.6896C60.2047 13.2538 60.0933 13.8996 59.5292 14.4712C58.0965 15.9261 56.6564 17.3662 55.2089 18.7988C54.615 19.3852 53.9915 19.9494 53.3828 20.521H53.3902ZM50.6882 3.56667C50.6288 3.57409 50.5991 3.56667 50.5843 3.58151C46.7985 7.06294 45.3065 11.2867 46.4199 16.364C46.457 16.5422 46.5981 16.7575 46.754 16.8465C47.3181 17.1657 47.9045 17.433 48.4835 17.7225C48.5504 17.6408 48.6097 17.5889 48.6246 17.5295C49.649 14.5454 51.0519 11.7617 52.982 9.25274C53.0785 9.12655 53.1453 8.90386 53.1082 8.74797C52.6925 6.83282 51.913 5.08097 50.6734 3.56667H50.6882ZM54.2513 23.4679C54.5408 24.0395 54.7635 24.574 55.0753 25.0565C55.2312 25.294 55.5132 25.5241 55.7805 25.5984C57.5249 26.0734 59.2916 26.066 61.0583 25.7394C64.0498 25.1752 66.4475 23.6164 68.4814 21.3524C67.0414 20.2092 65.4602 19.4669 63.7306 18.9844C63.1665 18.8285 62.7805 18.9547 62.3425 19.2962C60.4051 20.7956 58.2524 21.9091 55.9883 22.8147C55.4316 23.0374 54.8674 23.2378 54.2587 23.4679H54.2513Z" fill="#BA9C32"/>
</svg>
