<svg width="25" height="25" viewBox="0 0 25 25" fill="none" xmlns="http://www.w3.org/2000/svg">
<path d="M5.36745 24.732C5.81054 25.0939 6.3725 24.9695 7.04253 24.4606L12.7594 20.0617L18.487 24.4606C19.157 24.9695 19.7082 25.0939 20.162 24.732C20.6051 24.3814 20.7024 23.8047 20.4323 22.9792L18.1736 15.9455L23.9445 11.6032C24.6145 11.1056 24.8846 10.5854 24.7118 10.02C24.5388 9.47724 24.0309 9.20584 23.1988 9.21715L16.1203 9.26238L13.9697 2.19476C13.7104 1.35796 13.3213 0.93956 12.7594 0.93956C12.2082 0.93956 11.8192 1.35796 11.5598 2.19476L9.40923 9.26238L2.33072 9.21715C1.4986 9.20584 0.990679 9.47724 0.817768 10.02C0.634052 10.5854 0.91503 11.1056 1.58506 11.6032L7.35592 15.9455L5.09728 22.9792C4.82711 23.8047 4.92437 24.3814 5.36745 24.732Z" fill="#A5682E"/>
</svg>
