<?xml version="1.0" encoding="UTF-8"?>
<svg id="Camada_1" data-name="Camada 1" xmlns="http://www.w3.org/2000/svg" viewBox="0 0 100 100">
  <defs>
    <style>
      .cls-1 {
        fill: #543417;
        stroke-width: 0px;
      }
    </style>
  </defs>
  <g>
    <path class="cls-1" d="m76.19,38.18c4.25,8.18,1.71,19.35-4.06,26.11-3.98,4.66-9.49,7.48-15.46,8.63-7.02,1.35-14.72.75-21.09-2.64-10.13-5.4-16.29-17.91-12.86-29.16.37-1.21,1.25-2.53,1.25-3.8.01-1.74-1.42-3.92.18-5.35.43-.39,1.11-.67,1.68-.55s.93.35,1.56.28c1.72-.18,3.35-1.48,4.79-2.36,1.83-1.11,3.74-2.16,5.42-3.5,2.22-1.78,5.27-4.17,8.27-4.04s5.71,1.89,8.67,1.84c1.53-.02,3.06-.22,4.59-.31,1.32-.08,3-.33,4.29.1,1.03.35,1.95,1.51,2.71,2.26,1.17,1.16,2.29,2.36,3.41,3.57.78.84,1.54,1.74,2.4,2.51.75.67,1.82.65,2.56,1.32.69.63.74,1.91.99,2.77.19.67.38,1.34.6,2,.49,1.53,2.9.87,2.41-.66-.54-1.69-.7-3.89-1.76-5.33-.47-.64-1.11-1.1-1.83-1.42-.32-.14-.67-.3-1.01-.38-.11-.03-.21-.07-.31-.1.08.02.4.29.21.12-2.14-2.01-4-4.3-6.1-6.35-.96-.94-2.04-2.17-3.34-2.62-1.43-.5-3.12-.38-4.61-.31-1.63.08-3.25.28-4.89.34-1.23.05-2.26-.33-3.55-.71-1.84-.54-3.79-1.12-5.72-1.13-1.83-.01-3.58.76-5.16,1.63-1.49.82-2.88,1.81-4.21,2.85-.3.23-.59.49-.89.72.46-.36-.26.13-.49.27-1.48.92-2.97,1.84-4.47,2.75-.72.43-1.43.89-2.17,1.28-.36.19-.8.46-1.22.43.33.03-.76-.3-.88-.32-1.73-.27-3.56.8-4.47,2.22-1.21,1.86-.47,3.7-.19,5.69.1.74-.25,1.25-.52,1.93s-.5,1.35-.7,2.04c-.41,1.43-.66,2.91-.8,4.39-.28,2.94-.01,5.94.68,8.8,1.51,6.25,5.18,11.92,10.27,15.86,6.03,4.67,13.62,6.5,21.16,6.16,7.02-.32,13.95-2.42,19.39-6.98,8.08-6.78,11.99-18.93,8.72-29.08-.34-1.04-.76-2.06-1.26-3.03-.74-1.43-2.9-.17-2.16,1.26Z"/>
    <path class="cls-1" d="m63.09,21.52c-4.3,1.3-8.13,3.52-11.45,6.57-1.19,1.09.58,2.86,1.77,1.77,1.95-1.8,4.13-3.32,6.53-4.48.22-.11.44-.21.67-.31.12-.05.23-.1.35-.15.2-.09-.03.01.09-.04.38-.15.76-.3,1.14-.44.52-.18,1.04-.34,1.57-.5,1.54-.46.88-2.88-.66-2.41h0Z"/>
    <path class="cls-1" d="m23.84,32.82c2.12-1,4.21,1.06,5.49,2.53s2.53,2.81,4.3,3.65c-.46-.22-.21-.1-.02.03.1.06.42.32.09.05.13.11.26.22.39.34.78.75,1.29,1.57,1.83,2.7,1.1,2.29,1.62,4.88,1.94,7.38.09.67.51,1.24,1.25,1.25.61,0,1.34-.58,1.25-1.25-.51-3.99-1.39-8.61-4.29-11.63-.43-.45-.92-.85-1.47-1.14-.87-.47.25.2-.17-.08-.34-.23-.7-.41-1.03-.66-1.05-.81-1.81-1.88-2.71-2.83-2.14-2.28-5.04-3.93-8.12-2.47-1.45.68-.19,2.84,1.26,2.16h0Z"/>
    <path class="cls-1" d="m52.2,73.12c.63.26-.08-.06-.26-.17-.49-.29-.84-.54-1.17-.82-1.45-1.22-2.59-2.73-3.48-4.4-1.5-2.81-2.25-6.02-2.54-9.18s-.6-6.83.49-9.82c.24-.66.5-1.12.98-1.5-.14.11.36-.2.48-.25-.19.09.4-.12.56-.17,1.07-.3,2.09-.53,2.87-1.39.84-.92,1.32-2.05,1.63-3.23.26-.99.94-1.25,1.93-1.47,1.41-.31,2.87-.52,4.07-1.37,1.13-.8,1.77-2.03,2.91-2.84,1.61-1.14,2.11-2.88,3.13-4.48.88-1.38,1.82-2.01,3.4-1.52,2.84.87,6.06,2.71,9.11,2.24,1.59-.25.91-2.65-.66-2.41-1.21.19-2.82-.55-3.94-.92-1.42-.47-2.81-1.06-4.25-1.44-1.37-.36-2.69-.21-3.86.62-1.69,1.2-2.32,3.07-3.34,4.77-.69,1.15-2.02,1.65-2.87,2.7-.51.63-.87,1.22-1.64,1.56-.69.3-1.46.42-2.19.57-1.41.29-2.7.65-3.57,1.88-.6.85-.61,1.84-1.1,2.71-.17.3-.52.83-.61.94.12-.15-.29.25-.12.12.04-.03-.57.28-.34.19-.48.18-.99.26-1.48.41-1.47.45-2.57,1.39-3.21,2.79-1.33,2.89-1.16,6.51-1.01,9.6.18,3.67.83,7.32,2.3,10.69,1.39,3.17,3.78,6.57,7.09,7.97,1.48.62,2.13-1.79.66-2.41h0Z"/>
    <path class="cls-1" d="m59.68,72.2c-.96.24-1.69,1.27-2.25,2.01-.32.41-.62.84-.87,1.29-.1.17-.18.35-.26.53-.07.15-.13.3-.18.45-.01.04-.03.08-.04.13-.06.17.15-.21-.04.07-.2.3-.53.65-.91.9-.52.33-.84.48-1.46.59-.15.03,0,0,.03,0-.08,0-.15,0-.23.01-.01,0-.02,0-.03,0-.09,0-.18,0-.27,0h-3.16c-1.61,0-1.61,2.5,0,2.5,1.17,0,2.35.04,3.52,0,1.38-.05,2.71-.7,3.73-1.6.51-.45.92-1.01,1.17-1.65.04-.09.08-.19.1-.29.05-.21-.11.19,0-.02.12-.22.23-.44.36-.66.16-.26.33-.51.51-.75.04-.05.07-.1.11-.15-.08.1,0,.01.03-.04.1-.12.2-.24.3-.36.16-.18.33-.35.5-.52.03-.03.07-.05.1-.09.09-.12-.22.13-.04.03.25-.14-.15.04-.06.01,1.56-.4.9-2.81-.66-2.41h0Z"/>
    <path class="cls-1" d="m35.62,27.06c-.44.07.01,0,.23,0,.34-.02.7-.02,1.04.03,1,.13,2,.56,2.64,1.36.74.92.89,2.04,1.94,2.74.84.56,1.86.7,2.85.76,2.45.13,4.92-.2,7.06,1.3,1.9,1.33,3.65,3.95,4.29,6.18.44,1.54,2.86.89,2.41-.66-.59-2.07-1.88-3.94-3.22-5.6-1.53-1.91-3.63-3.16-6.05-3.51-1.07-.16-2.13-.18-3.21-.18-.78,0-1.68.08-2.43-.2s-.89-1.15-1.3-1.8c-.58-.92-1.41-1.69-2.39-2.17-1.39-.68-3.01-.88-4.53-.64s-.91,2.67.66,2.41h0Z"/>
  </g>
  <path class="cls-1" d="m39.66,74.61c.16.04-.32-.1-.11-.05.03,0,.09.06.11.07-.01,0-.18-.17-.1-.07.12.16.31.29.45.44.43.47.54.61.88,1.12.13.19.26.39.37.59.06.11.12.21.17.32.02.04.04.09.06.13.08.16-.07-.21-.03-.06.17.62.51,1.17.95,1.64.86.95,2.17,1.67,3.44,1.86.67.1,1.34.07,2.02.07h2.13c1.61,0,1.61-2.5,0-2.5-1.15,0-2.31.03-3.47,0-.07,0-.34-.03-.14,0-.13-.02-.25-.05-.37-.08-.3-.08-.46-.15-.65-.24-.55-.28-.9-.5-1.27-.97-.09-.11-.01-.02,0,0-.05-.07-.08-.14-.13-.21-.12-.18,0,.07-.05-.13-.08-.25-.19-.5-.3-.74-.21-.45-.49-.86-.78-1.27-.6-.83-1.44-2.08-2.51-2.36-1.56-.4-2.22,2.01-.66,2.41h0Z"/>
</svg>