<svg width="23" height="23" viewBox="0 0 23 23" fill="none" xmlns="http://www.w3.org/2000/svg">
<circle cx="11.2896" cy="11.4897" r="10.8071" fill="#DDDDDD"/>
<g clip-path="url(#clip0_1134_2815)">
<path d="M17.1045 6.91619C17.2219 6.81043 17.291 6.65839 17.291 6.48653C17.291 6.14281 17.0216 5.88502 16.6623 5.88502C16.4827 5.88502 16.3169 5.94451 16.2133 6.05688L10.9214 11.2259H11.6606L6.36871 6.05688C6.25821 5.94451 6.09239 5.88502 5.91971 5.88502C5.56047 5.88502 5.29102 6.14281 5.29102 6.48653C5.29102 6.65839 5.36013 6.81043 5.47756 6.91619L10.8247 12.1513C10.9421 12.2769 11.1149 12.3496 11.2876 12.3496C11.4672 12.3496 11.633 12.2769 11.7573 12.1513L17.1045 6.91619Z" fill="#434343"/>
</g>
<g clip-path="url(#clip1_1134_2815)">
<path d="M17.1045 12.1961C17.2219 12.0903 17.291 11.9383 17.291 11.7664C17.291 11.4227 17.0216 11.1649 16.6623 11.1649C16.4827 11.1649 16.3169 11.2244 16.2133 11.3368L10.9214 16.5058H11.6606L6.36871 11.3368C6.25821 11.2244 6.09239 11.1649 5.91971 11.1649C5.56047 11.1649 5.29102 11.4227 5.29102 11.7664C5.29102 11.9383 5.36013 12.0903 5.47756 12.1961L10.8247 17.4312C10.9421 17.5568 11.1149 17.6295 11.2876 17.6295C11.4672 17.6295 11.633 17.5568 11.7573 17.4312L17.1045 12.1961Z" fill="#434343"/>
</g>
<defs>
<clipPath id="clip0_1134_2815">
<rect width="12" height="7" fill="white" transform="matrix(-1 0 0 -1 17.291 12.3496)"/>
</clipPath>
<clipPath id="clip1_1134_2815">
<rect width="12" height="7" fill="white" transform="matrix(-1 0 0 -1 17.291 17.6295)"/>
</clipPath>
</defs>
</svg>
