<svg width="23" height="23" viewBox="0 0 23 23" fill="none" xmlns="http://www.w3.org/2000/svg">
<circle cx="11.3032" cy="11.6469" r="10.8071" fill="#AFEAA1"/>
<g clip-path="url(#clip0_1134_2796)">
<path d="M5.49122 13.5803C5.37377 13.686 5.30469 13.8381 5.30469 14.0099C5.30469 14.3536 5.57412 14.6114 5.93336 14.6114C6.11298 14.6114 6.27878 14.5519 6.38241 14.4396L11.6743 9.27055H10.9351L16.227 14.4396C16.3375 14.5519 16.5033 14.6114 16.676 14.6114C17.0352 14.6114 17.3047 14.3536 17.3047 14.0099C17.3047 13.8381 17.2356 13.686 17.1181 13.5803L11.771 8.34515C11.6536 8.21956 11.4809 8.14685 11.3081 8.14685C11.1285 8.14685 10.9627 8.21956 10.8384 8.34515L5.49122 13.5803Z" fill="#283618"/>
</g>
<defs>
<clipPath id="clip0_1134_2796">
<rect width="12" height="7" fill="white" transform="translate(5.30469 8.14685)"/>
</clipPath>
</defs>
</svg>
