<svg width="23" height="22" viewBox="0 0 23 22" fill="none" xmlns="http://www.w3.org/2000/svg">
<circle cx="11.3032" cy="10.8754" r="10.8071" fill="#EAA1A1"/>
<g clip-path="url(#clip0_1134_2808)">
<path d="M17.1182 8.94243C17.2356 8.83667 17.3047 8.68464 17.3047 8.51278C17.3047 8.16906 17.0353 7.91127 16.676 7.91127C16.4964 7.91127 16.3306 7.97076 16.227 8.08312L10.9351 13.2522H11.6743L6.38238 8.08312C6.27188 7.97076 6.10606 7.91127 5.93338 7.91127C5.57415 7.91127 5.30469 8.16906 5.30469 8.51278C5.30469 8.68464 5.3738 8.83667 5.49124 8.94243L10.8384 14.1776C10.9558 14.3031 11.1285 14.3759 11.3012 14.3759C11.4809 14.3759 11.6467 14.3031 11.771 14.1776L17.1182 8.94243Z" fill="#522424"/>
</g>
<defs>
<clipPath id="clip0_1134_2808">
<rect width="12" height="7" fill="white" transform="matrix(-1 0 0 -1 17.3047 14.3759)"/>
</clipPath>
</defs>
</svg>
