<svg width="26" height="25" viewBox="0 0 26 25" fill="none" xmlns="http://www.w3.org/2000/svg">
<path d="M5.364 24.565C5.82556 24.9243 6.41093 24.8008 7.10887 24.2955L13.0639 19.9275L19.0302 24.2955C19.7281 24.8008 20.3023 24.9243 20.775 24.565C21.2366 24.2168 21.3379 23.6442 21.0565 22.8245L18.7038 15.8402L24.715 11.5283C25.413 11.0343 25.6944 10.5177 25.5144 9.95629C25.3342 9.41731 24.8051 9.14781 23.9383 9.15904L16.5649 9.20396L14.3247 2.18595C14.0546 1.35503 13.6493 0.93956 13.0639 0.93956C12.4897 0.93956 12.0845 1.35503 11.8144 2.18595L9.57419 9.20396L2.20075 9.15904C1.33395 9.14781 0.804865 9.41731 0.624751 9.95629C0.433379 10.5177 0.726065 11.0343 1.42401 11.5283L7.43533 15.8402L5.08258 22.8245C4.80115 23.6442 4.90246 24.2168 5.364 24.565ZM6.98503 22.3417C6.96252 22.3193 6.97378 22.308 6.98503 22.2406L9.22521 15.8178C9.38281 15.3798 9.29276 15.0317 8.89875 14.7622L3.2927 10.8995C3.23641 10.8658 3.22516 10.8434 3.23641 10.8097C3.24767 10.776 3.27018 10.776 3.33772 10.776L10.1483 10.8995C10.6098 10.9107 10.9025 10.7198 11.0489 10.2595L13.0077 3.75799C13.0188 3.69062 13.0414 3.66816 13.0639 3.66816C13.0977 3.66816 13.1202 3.69062 13.1315 3.75799L15.0902 10.2595C15.2365 10.7198 15.5293 10.9107 15.9907 10.8995L22.8013 10.776C22.8688 10.776 22.8914 10.776 22.9026 10.8097C22.9139 10.8434 22.8914 10.8658 22.8464 10.8995L17.2403 14.7622C16.8463 15.0317 16.7562 15.3798 16.9138 15.8178L19.154 22.2406C19.1653 22.308 19.1765 22.3193 19.154 22.3417C19.1316 22.3754 19.0978 22.3528 19.0527 22.3193L13.638 18.1983C13.2778 17.9175 12.8613 17.9175 12.501 18.1983L7.08636 22.3193C7.04132 22.3528 7.00756 22.3754 6.98503 22.3417Z" fill="#A5682E"/>
</svg>
