<svg width="28" height="25" viewBox="0 0 28 25" fill="none" xmlns="http://www.w3.org/2000/svg">
<path d="M10.8979 23.5941H17.4245V15.275C17.4245 14.7494 17.0851 14.4066 16.5648 14.4066H11.7688C11.2372 14.4066 10.8979 14.7494 10.8979 15.275V23.5941ZM6.47514 24.7711H21.7793C23.3855 24.7711 24.3244 23.8454 24.3244 22.2457V9.61862L22.5032 8.36162V21.7772C22.5032 22.5199 22.1073 22.9313 21.3947 22.9313H6.85972C6.1358 22.9313 5.73991 22.5199 5.73991 21.7772V8.37304L3.91878 9.61862V22.2457C3.91878 23.8454 4.85763 24.7711 6.47514 24.7711ZM0.661133 12.0526C0.661133 12.5211 1.02309 12.9668 1.6339 12.9668C1.95062 12.9668 2.21078 12.7954 2.44832 12.6011L13.771 3.00227C14.0198 2.77373 14.3252 2.77373 14.574 3.00227L25.8966 12.6011C26.1228 12.7954 26.383 12.9668 26.6998 12.9668C27.2314 12.9668 27.6611 12.6354 27.6611 12.0869C27.6611 11.7441 27.5481 11.5155 27.3105 11.3098L15.5355 1.31105C14.6984 0.591132 13.6578 0.591132 12.8095 1.31105L1.02309 11.3098C0.774246 11.5155 0.661133 11.7898 0.661133 12.0526ZM21.4852 6.89894L24.3244 9.3215V4.04214C24.3244 3.53934 24.0076 3.21939 23.51 3.21939H22.2996C21.8132 3.21939 21.4852 3.53934 21.4852 4.04214V6.89894Z" fill="#A5682E"/>
</svg>
