<svg width="18" height="25" viewBox="0 0 18 25" fill="none" xmlns="http://www.w3.org/2000/svg">
<path d="M4.89597 11.7262C5.371 11.7262 5.75507 11.3498 5.75507 10.8843C5.75507 10.4187 5.371 10.0423 4.89597 10.0423C4.43105 10.0423 4.03687 10.4286 4.03687 10.8843C4.03687 11.3399 4.43105 11.7262 4.89597 11.7262ZM4.89597 15.2326C5.371 15.2326 5.75507 14.8562 5.75507 14.3906C5.75507 13.9251 5.371 13.5586 4.89597 13.5586C4.42094 13.5586 4.03687 13.935 4.03687 14.3906C4.03687 14.8562 4.42094 15.2326 4.89597 15.2326ZM4.89597 18.947C5.371 18.947 5.75507 18.5706 5.75507 18.105C5.75507 17.6395 5.371 17.2632 4.89597 17.2632C4.43105 17.2632 4.03687 17.6494 4.03687 18.105C4.03687 18.5607 4.43105 18.947 4.89597 18.947ZM7.59454 11.4984H13.6587C14.0024 11.4984 14.2854 11.221 14.2854 10.8843C14.2854 10.5475 14.0024 10.2602 13.6587 10.2602H7.59454C7.2509 10.2602 6.95779 10.5475 6.95779 10.8843C6.95779 11.221 7.2509 11.4984 7.59454 11.4984ZM7.59454 15.0147H13.6587C14.0125 15.0147 14.2854 14.7373 14.2854 14.3906C14.2854 14.0539 14.0125 13.7864 13.6587 13.7864H7.59454C7.24079 13.7864 6.95779 14.0539 6.95779 14.3906C6.95779 14.7373 7.24079 15.0147 7.59454 15.0147ZM7.59454 18.7192H13.6587C14.0024 18.7192 14.2854 18.4419 14.2854 18.105C14.2854 17.7683 14.0125 17.491 13.6587 17.491H7.59454C7.24079 17.491 6.95779 17.7683 6.95779 18.105C6.95779 18.4419 7.2509 18.7192 7.59454 18.7192ZM3.7943 24.9396H14.5279C16.6201 24.9396 17.6611 23.9095 17.6611 21.8294V6.81328C17.6611 4.78274 16.6605 3.70309 14.6392 3.70309H14.3966C14.4066 3.78232 14.4066 3.87147 14.4066 3.95071V4.84217C14.4066 5.00065 14.3966 5.15914 14.3662 5.29781H14.6088C15.5588 5.29781 16.0339 5.90201 16.0339 6.83309V21.8096C16.0339 22.8 15.4982 23.3448 14.4471 23.3448H3.87516C2.82403 23.3448 2.28837 22.8 2.28837 21.8096V6.83309C2.28837 5.90201 2.76339 5.29781 3.71345 5.29781H3.95601C3.9257 5.15914 3.91559 5.00065 3.91559 4.84217V3.95071C3.91559 3.87147 3.91559 3.78232 3.9257 3.70309H3.68313C1.66173 3.70309 0.661133 4.78274 0.661133 6.81328V21.8294C0.661133 23.9095 1.70215 24.9396 3.7943 24.9396ZM6.03806 5.97135H12.2842C12.8704 5.97135 13.2242 5.60486 13.2242 4.99074V3.95071C13.2242 3.3366 12.8704 2.97011 12.2842 2.97011H11.3543C11.2836 1.85084 10.3335 0.939568 9.16112 0.939568C7.98871 0.939568 7.03865 1.85084 6.9679 2.97011H6.03806C5.45186 2.97011 5.09811 3.3366 5.09811 3.95071V4.99074C5.09811 5.60486 5.45186 5.97135 6.03806 5.97135ZM9.16112 3.91109C8.67599 3.91109 8.28181 3.51489 8.28181 3.04935C8.28181 2.564 8.67599 2.1777 9.16112 2.1777C9.64626 2.1777 10.0404 2.564 10.0404 3.04935C10.0404 3.51489 9.64626 3.91109 9.16112 3.91109Z" fill="#A5682E"/>
</svg>
