<svg width="56" height="56" viewBox="0 0 56 56" fill="none" xmlns="http://www.w3.org/2000/svg">
<rect x="0.636475" y="0.0685883" width="55" height="55" rx="10" fill="#775B43"/>
<path d="M9.09075 20.147C11.7172 20.686 14.1966 22.3569 15.9557 24.3659C16.186 24.6305 16.5829 24.5668 16.823 24.3659C20.0276 21.6366 24.0211 19.9069 28.2106 19.4512C30.2588 19.2307 32.3315 19.2503 34.3552 19.6472C37.2462 20.2107 39.7991 21.5141 42.1609 23.2487C43.1997 24.0131 44.2091 24.8265 45.1695 25.6889C45.6889 26.1544 46.8747 26.8698 46.4484 27.6685C46.1691 28.1977 45.6693 28.6142 45.2234 29.0062C44.5031 29.6383 43.7632 30.2557 43.0135 30.8535C40.9702 32.4901 38.8436 33.8915 36.325 34.6804C34.071 35.386 31.7092 35.6212 29.3621 35.4693C24.761 35.1802 20.3461 33.4505 16.8328 30.4517C16.5976 30.2508 16.1958 30.1871 15.9655 30.4517C14.2799 32.4117 11.8495 33.9552 9.32105 34.4746L10.012 34.7539C10.1002 34.9646 10.0512 34.8764 10.0218 34.7539C9.99235 34.6216 9.95315 34.4991 9.92865 34.3668C9.86495 34.014 9.86005 33.4701 9.91395 33.0193C10.1443 31.074 11.2811 29.3051 12.5061 27.8351C12.7315 27.5656 12.7364 27.2422 12.5061 26.9678C11.2174 25.4292 10.0757 23.6015 9.78655 21.5778C9.68855 20.9016 9.67385 20.245 9.85025 19.7109C10.1002 18.9612 8.91925 18.6427 8.66935 19.3875C8.40475 20.1715 8.47825 21.1074 8.60565 21.9061C8.95355 24.1405 10.2129 26.1299 11.6388 27.8351V26.9678C10.208 28.673 8.96825 30.6575 8.69875 32.9115C8.60075 33.7249 8.62035 34.6069 8.94865 35.3713C9.05645 35.6261 9.39945 35.7045 9.63955 35.6506C12.3542 35.092 15.0198 33.4162 16.8279 31.3141H15.9606C19.469 34.308 23.7663 36.1259 28.3527 36.6061C30.6557 36.8462 32.993 36.7482 35.2568 36.2288C38.0743 35.5869 40.5684 34.2639 42.8469 32.5146C44.2238 31.4562 45.7624 30.3782 46.9139 29.0601C47.5705 28.3104 48.1291 27.301 47.5215 26.3406C46.9139 25.3802 45.8408 24.6207 44.9931 23.9151C42.7048 22.009 40.2695 20.2597 37.452 19.2258C34.953 18.3095 32.2531 17.9616 29.6022 18.0988C24.5699 18.3585 19.7875 20.2156 15.9508 23.4888H16.8181C14.9365 21.3377 12.2268 19.5345 9.41415 18.9563C8.64485 18.7995 8.31655 19.9804 9.09075 20.1372V20.147Z" fill="#FFFADD"/>
<path d="M37.9565 33.6955C36.3885 31.7894 35.3938 29.0258 35.678 26.566C35.9083 24.5472 36.9275 22.6117 38.2848 21.1221C38.814 20.539 37.9516 19.6717 37.4175 20.2548C35.8348 21.9992 34.7078 24.2091 34.453 26.566C34.1492 29.3639 35.3203 32.4117 37.0941 34.5628C37.5939 35.1704 38.4563 34.3031 37.9614 33.6955H37.9565Z" fill="#FFFADD"/>
<path d="M34.2076 34.8764C34.3056 34.9989 34.1488 34.7882 34.1341 34.7637C34.09 34.6951 34.0508 34.6265 34.0067 34.553C33.8793 34.3374 33.7666 34.112 33.6539 33.8915C33.3452 33.279 33.0708 32.6469 32.8209 32.005C32.2721 30.584 31.7625 29.0552 31.7086 27.5166C31.6498 25.7967 32.2525 24.1013 33.0463 22.597C33.5363 21.6709 34.0998 20.7203 34.8054 19.9363C35.3297 19.3483 34.4673 18.481 33.9381 19.069C33.1296 19.9755 32.4632 21.0535 31.9095 22.1315C31.0569 23.7828 30.4199 25.635 30.4836 27.5166C30.5424 29.2218 31.0814 30.9074 31.7037 32.4852C32.1398 33.5877 32.5955 34.8127 33.3452 35.7437C33.8401 36.3611 34.6976 35.4889 34.2125 34.8764H34.2076Z" fill="#FFFADD"/>
<path d="M40.7839 26.7522C41.3955 26.7522 41.8913 26.2564 41.8913 25.6448C41.8913 25.0332 41.3955 24.5374 40.7839 24.5374C40.1723 24.5374 39.6765 25.0332 39.6765 25.6448C39.6765 26.2564 40.1723 26.7522 40.7839 26.7522Z" fill="#FFFADD"/>
<path d="M41.2144 25.3998C41.234 25.439 41.2536 25.4782 41.2732 25.5174L41.2095 25.3704C41.2487 25.4684 41.2781 25.5664 41.2879 25.6693L41.2683 25.5076C41.2781 25.6007 41.2781 25.6938 41.2683 25.782L41.2879 25.6203C41.2732 25.7183 41.2487 25.8163 41.2095 25.9094L41.2732 25.7624C41.234 25.8457 41.1899 25.929 41.136 26.0025L41.234 25.88C41.1752 25.9535 41.1115 26.0221 41.038 26.0809L41.1605 25.9829C41.0821 26.0417 40.9988 26.0907 40.9106 26.1299L41.0576 26.0662C40.9596 26.1054 40.8616 26.1348 40.7587 26.1446L40.9204 26.125C40.8273 26.1348 40.7342 26.1348 40.646 26.125L40.8077 26.1446C40.7097 26.1299 40.6117 26.1054 40.5186 26.0662L40.6656 26.1299C40.5823 26.0907 40.499 26.0466 40.4255 25.9927L40.548 26.0907C40.4745 26.0319 40.4059 25.9682 40.3471 25.8947L40.4451 26.0172C40.3863 25.9388 40.3373 25.8555 40.2981 25.7673L40.3618 25.9143C40.3226 25.8163 40.2932 25.7183 40.2834 25.6154L40.303 25.7771C40.2932 25.684 40.2932 25.5909 40.303 25.5027L40.2834 25.6644C40.2981 25.5664 40.3226 25.4684 40.3618 25.3753L40.2981 25.5223C40.3373 25.439 40.3814 25.3557 40.4353 25.2822L40.3373 25.4047C40.3961 25.3312 40.4598 25.2626 40.5333 25.2038L40.4108 25.3018C40.4892 25.243 40.5725 25.194 40.6607 25.1548L40.5137 25.2185C40.6117 25.1793 40.7097 25.1499 40.8126 25.1401L40.6509 25.1597C40.744 25.1499 40.8371 25.1499 40.9253 25.1597L40.7636 25.1401C40.8616 25.1548 40.9596 25.1793 41.0527 25.2185L40.9057 25.1548C40.989 25.194 41.0723 25.2381 41.1458 25.292L41.0233 25.194C41.0968 25.2528 41.1654 25.3165 41.2242 25.39L41.1262 25.2675C41.1605 25.3116 41.1899 25.3557 41.2144 25.3998C41.3761 25.6742 41.773 25.8016 42.0523 25.6203C42.3316 25.439 42.4492 25.0764 42.2728 24.7824C42.0964 24.4884 41.8465 24.2434 41.5476 24.1062C41.185 23.9396 40.8273 23.8955 40.4353 23.9641C39.7787 24.0768 39.2152 24.655 39.1025 25.3067C39.0339 25.6987 39.0878 26.0662 39.2544 26.4288C39.3916 26.7228 39.6513 26.9874 39.9355 27.1442C40.2197 27.301 40.5676 27.3941 40.8959 27.3647C41.2928 27.3304 41.6407 27.1834 41.9445 26.9188C42.5521 26.3945 42.6599 25.4684 42.2728 24.7873C42.116 24.508 41.7093 24.3904 41.4349 24.5668C41.1605 24.7432 41.0478 25.1058 41.2144 25.4047V25.3998Z" fill="#FFFADD"/>
</svg>
