<svg width="25" height="25" viewBox="0 0 25 25" fill="none" xmlns="http://www.w3.org/2000/svg">
<ellipse cx="10.1167" cy="10.681" rx="6.28865" ry="6.22807" fill="#A5682E"/>
<path d="M0.262695 10.6466C0.262695 15.9988 4.65983 20.3536 10.0641 20.3536C12.2013 20.3536 14.1542 19.6725 15.7632 18.529L21.8062 24.5259C22.0887 24.8058 22.4572 24.9396 22.8503 24.9396C23.6854 24.9396 24.2627 24.3191 24.2627 23.5041C24.2627 23.1149 24.1153 22.7621 23.8575 22.5068L17.8513 16.522C19.1163 14.892 19.8655 12.8605 19.8655 10.6466C19.8655 5.29436 15.4684 0.939575 10.0641 0.939575C4.65983 0.939575 0.262695 5.29436 0.262695 10.6466ZM2.363 10.6466C2.363 6.43779 5.81439 3.01965 10.0641 3.01965C14.3139 3.01965 17.7653 6.43779 17.7653 10.6466C17.7653 14.8555 14.3139 18.2735 10.0641 18.2735C5.81439 18.2735 2.363 14.8555 2.363 10.6466Z" fill="#A5682E"/>
</svg>
