<?xml version="1.0" encoding="UTF-8"?>
<svg id="Camada_1" data-name="Camada 1" xmlns="http://www.w3.org/2000/svg" viewBox="0 0 100 100">
  <defs>
    <style>
      .cls-1 {
        fill: #543417;
        stroke-width: 0px;
      }
    </style>
  </defs>
  <path class="cls-1" d="m51.89,76.51c-2.77-1.19-5.05.79-7.66,1.57s-5.66,1.11-7.98-.45c-1.61-1.08-2.76-2.86-3.75-4.48-1.29-2.13-2.36-4.4-3.28-6.71-1.68-4.23-3.23-8.87-3.1-13.48.15-5.31,2.74-10.17,7.29-12.99s9.94-1.27,14.28,1.56c.6.39,1.22,1,1.92,1.21,1.11.33,1.89-.36,2.72-.95,1.92-1.35,4.04-2.46,6.33-3.03,5.7-1.42,11.05,2.42,13.56,7.39,2.16,4.3,1.94,9.15.77,13.68-1.34,5.19-3.38,10.49-6.46,14.91-1.31,1.88-2.79,3.42-5.11,3.89-3.25.66-6.66-.66-9.52-2.11-1.43-.72-2.7,1.43-1.26,2.16,4.85,2.45,11.42,4.28,15.83.02,3.67-3.55,5.83-8.86,7.51-13.58s3-10.03,2.08-15.21c-1.02-5.74-4.98-10.96-10.44-13.18-4.95-2.01-11.24.03-15.19,3.38l-.13.1c-.34.22-.34.26,0,.11-.09-.04-.25-.16-.32-.24-.22-.26-.64-.45-.92-.64-1.02-.67-2.08-1.27-3.19-1.78-2.58-1.2-5.45-2.03-8.33-1.75-5.92.57-10.89,5.67-12.82,11.05-1.8,5.01-1.09,10.29.39,15.27,1.64,5.51,3.97,11.57,7.92,15.87,2,2.18,4.68,3.2,7.64,3.12,1.81-.05,3.61-.46,5.31-1.07.77-.28,1.52-.59,2.27-.93s1.52-.91,2.38-.54c1.46.63,2.74-1.53,1.26-2.16Z"/>
  <path class="cls-1" d="m25.41,23.56c.91,2.3,2.63,4.34,4.56,5.86,3.13,2.46,6.97,3.4,10.89,2.74,1.23-.21,2.42-.57,3.58-1.05s2.81-.93,3.14-2.26c.28-1.11-.64-2.41-1.25-3.29-1.8-2.62-4.32-4.74-7.33-5.82-2.17-.78-4.5-.88-6.76-.52-1.44.23-2.82.68-4.15,1.25-1.44.62-3.02,1.23-2.68,3.09.29,1.58,2.7.91,2.41-.66.12.65.13.38.64.13.24-.12.49-.23.74-.33.51-.21,1.03-.4,1.56-.56.92-.28,1.86-.5,2.82-.58,1.59-.13,3.14.04,4.65.57,2.28.8,4.33,2.5,5.7,4.37.47.64.76,1.41,1.22,2.04.14.19-.02-.23-.01-.03-.02-.66-.09-.4-.49-.21-.52.25-1.06.49-1.6.68-.97.35-1.97.63-2.99.79-2.98.45-5.96-.33-8.36-2.15-.96-.73-1.91-1.7-2.58-2.6-.31-.41-.6-.84-.86-1.29-.11-.19-.22-.39-.32-.59-.13-.25-.17-.37-.12-.25-.58-1.48-3-.83-2.41.66Z"/>
  <path class="cls-1" d="m51.7,40.18c-2.07-5.87-2.07-12.21,0-18.07.54-1.52-1.88-2.17-2.41-.66-2.2,6.25-2.2,13.15,0,19.4.53,1.51,2.95.86,2.41-.66h0Z"/>
</svg>