<?xml version="1.0" encoding="UTF-8"?>
<svg id="Camada_1" data-name="Camada 1" xmlns="http://www.w3.org/2000/svg" viewBox="0 0 100 100">
  <defs>
    <style>
      .cls-1 {
        fill: #543417;
        stroke-width: 0px;
      }
    </style>
  </defs>
  <path class="cls-1" d="m20.99,79.22c2.27,2.03,5.22,2.12,7.78.57,1.18-.71,2.35-1.45,3.52-2.17,4.55-2.81,9.08-5.65,13.6-8.5,3.4-2.14,6.8-4.29,10.18-6.45,3.04-1.94,5.94-4.17,8.15-7.05,2.72-3.53,3.98-7.95,2.69-12.31-1.15-3.86-3.85-7.2-7.41-9.09-3.34-1.77-7.25-2.18-10.82-.83-6.48,2.46-10.19,8.68-13.72,14.25-3.54,5.58-7.06,11.16-10.55,16.77-1.03,1.65-2.05,3.29-3.07,4.95s-2.23,3.36-2.21,5.46c.02,1.7.73,3.15,1.84,4.4s2.83-.57,1.77-1.77c-1.82-2.05-.94-4.07.29-6.08.84-1.36,1.68-2.72,2.52-4.08,2.88-4.64,5.79-9.27,8.71-13.89,1.98-3.13,3.89-6.32,5.98-9.38,1.78-2.61,3.92-5.14,6.59-6.89,3.07-2.01,6.65-2.65,10.11-1.34,3.07,1.16,5.26,3.29,6.74,6.16s1.67,6.46.19,9.51c-2.91,6.01-9.44,9.28-14.83,12.68-5.31,3.36-10.62,6.7-15.96,10.02-1.48.92-2.96,1.83-4.44,2.75-1.88,1.16-3.92,2.31-5.91.53-1.2-1.07-2.97.69-1.77,1.77Z"/>
  <path class="cls-1" d="m61.02,38.34c.47.51,1.47.49,2.1.52,1.2.06,2.42-.08,3.59-.35,3.91-.92,7.06-3.64,9.18-6.97,1.98-3.12,3.13-6.73,3.87-10.32.2-.97-.57-1.73-1.54-1.54-5.31,1.08-10.82,3.25-14.26,7.64-1.94,2.47-3.09,5.49-3.21,8.64-.03.67,0,1.33.11,1.99s.94,1.04,1.54.87c.71-.2.98-.87.87-1.54-.03-.19.01.39.03.23.01-.08-.02-.19-.03-.27-.02-.32-.03-.64-.03-.96,0-.47.04-.93.09-1.39.02-.22,0,.05-.01.08.01-.09.02-.17.04-.26.02-.12.04-.24.06-.36.06-.32.13-.64.22-.96.18-.66.46-1.45.64-1.84.35-.75.76-1.48,1.23-2.16,1.02-1.46,2.54-2.83,4.14-3.85,2.8-1.79,6-2.79,9.23-3.45l-1.54-1.54c-1.02,4.92-2.83,10.2-6.91,13.43-1.1.87-2.46,1.56-3.76,1.95-.3.09-.61.17-.91.23-.15.03-.3.06-.46.09-.1.02-.56.08-.19.03-.51.06-1.02.1-1.53.09-.39,0-.77-.04-1.15-.07.57.05.05.06-.04-.01-.01,0-.08-.02-.1-.02-.19.02-1.01-1.32.5.31-1.1-1.18-2.86.59-1.77,1.77h0Z"/>
  <path class="cls-1" d="m62.98,40.27c.06.43.55.91.8,1.2.54.62,1.19,1.15,1.87,1.6,2.32,1.51,5.16,1.76,7.82,1.23,2.41-.48,4.68-1.6,6.75-2.89.84-.52.77-1.62,0-2.16-3.57-2.48-8.14-4.34-12.5-2.93-1.78.57-3.49,1.63-4.63,3.13-.41.54-.08,1.4.45,1.71.64.38,1.3.09,1.71-.45-.4.52-.04.06.07-.06.21-.23.44-.43.67-.63.05-.04.36-.28.09-.07.08-.06.15-.11.23-.17.23-.15.46-.31.7-.44.58-.33.79-.42,1.37-.61,3.66-1.18,7.5.55,10.57,2.68v-2.16c-3.22,2-7.18,3.66-10.83,2.3-.77-.28-1.58-.83-2.18-1.42-.13-.13-.26-.27-.39-.41-.09-.1-.35-.49-.08-.08-.05-.07-.15-.15-.17-.23-.06-.22.03-.02.07.2-.1-.67-.94-1.04-1.54-.87-.72.2-.97.87-.87,1.54h0Z"/>
  <path class="cls-1" d="m60.77,33.84c.57-.12.8.16.42-.07-.07-.04-.17-.07-.24-.09.37.13.11.05-.06-.03-.28-.13-.55-.29-.81-.46-.14-.09-.27-.19-.41-.28-.18-.12.18.15-.04-.03-.09-.08-.18-.15-.26-.23-.82-.73-1.12-1.12-1.62-2.1-.48-.92-.83-2.28-.91-3.46-.15-2.18.25-4.32.84-6.41l-2.09.55c1.85,1.51,3.55,3.24,4.62,5.39.67,1.34.96,2.68.9,4.09,0,.17-.02.33-.03.5,0,.08-.02.16-.03.24.02-.14.02-.13,0,.02-.04.25-.09.5-.16.75s-.14.51-.23.76c-.03.08-.06.17-.09.25-.12.34.05-.1-.03.08-.18.4-.37.8-.64,1.15-.4.54-.09,1.4.45,1.71.64.37,1.31.1,1.71-.45,2.33-3.13,1.81-7.75,0-10.95-1.17-2.07-2.87-3.82-4.7-5.32-.71-.58-1.81-.42-2.09.55-1.05,3.7-1.52,7.82.14,11.42.85,1.83,2.34,3.43,4.16,4.33.58.29,1.23.62,1.89.49,1.58-.32.91-2.73-.66-2.41h0Z"/>
</svg>