<svg width="65" height="74" viewBox="0 0 65 74" fill="none" xmlns="http://www.w3.org/2000/svg">
<path d="M19.5295 73.9835C18.1468 73.5284 16.6979 73.2139 15.398 72.6016C12.2353 71.0957 9.85083 68.6547 7.83066 65.8579C3.74063 60.1982 1.43895 53.8185 0.461982 46.9342C-0.316282 41.4482 -0.167253 35.9953 1.3396 30.65C3.31838 23.6332 7.96313 19.3553 15.1 17.8328C18.9665 17.0054 22.7088 17.4108 26.2109 19.2974C27.2955 19.8849 28.256 20.7124 29.2578 21.4571C29.5972 21.7136 29.8953 22.028 30.2596 22.359C30.6156 20.6875 30.955 19.0906 31.3193 17.4026C31.1041 17.4026 30.8557 17.4026 30.6073 17.4026C28.3967 17.4026 26.1778 17.4026 23.9672 17.4026C16.524 17.386 10.389 12.3717 8.94838 5.07359C8.75795 4.11375 8.71655 3.12081 8.70827 2.13615C8.69172 1.01082 9.59417 0.100627 10.7119 0.0923524C14.0319 0.0758034 17.3768 -0.139333 20.672 0.150274C26.923 0.704664 31.2614 4.05583 33.6955 9.84796C33.8363 10.1789 33.9439 10.5265 34.0515 10.8657C34.1592 11.205 34.242 11.5442 34.1923 11.718C35.0699 10.9485 35.9641 10.1955 36.8334 9.41769C40.5426 6.12445 44.8893 4.46128 49.8487 4.41991C51.0657 4.41163 52.0179 5.3632 52.0344 6.54645C52.051 7.7297 51.1402 8.70609 49.9149 8.73918C45.6593 8.85503 41.9832 10.3196 38.9944 13.3729C36.7258 15.6897 35.3762 18.4865 34.8712 21.6887C34.8464 21.8294 34.8712 21.9701 34.8712 22.2266C35.1196 22.028 35.3017 21.9039 35.4673 21.7467C38.9198 18.4865 43.1092 17.5101 47.7043 17.7997C50.9333 17.9983 53.9304 18.9416 56.6295 20.7372C60.6616 23.4181 63.0046 27.2326 64.0313 31.916C64.9834 36.2684 65.2318 40.6539 64.7847 45.0972C64.1058 51.8409 62.1187 58.1461 58.5255 63.9051C56.2735 67.5211 53.5247 70.6985 49.6168 72.6182C48.3004 73.2636 46.8101 73.5532 45.4026 74H42.8029C41.089 73.3463 39.3835 72.6926 37.6696 72.0389C34.6642 70.8888 31.6008 70.6654 28.5209 71.6749C26.3683 72.3782 24.2653 73.2222 22.1375 74H19.5377L19.5295 73.9835ZM60.645 40.116C60.5208 38.8417 60.3883 36.7979 60.1151 34.779C59.7674 32.2222 59.105 29.7315 57.5568 27.5967C55.0812 24.1959 51.6618 22.4748 47.5139 22.1438C43.8212 21.846 40.6088 22.781 37.8187 25.4205C34.7636 28.3001 29.8208 28.1015 26.8236 25.1227C24.0749 22.3921 20.7383 21.4405 17.0539 21.9204C11.6392 22.6238 7.70647 25.4702 5.89327 30.7493C4.22083 35.6147 4.08836 40.6538 4.69276 45.7096C5.2806 50.6577 6.73777 55.3659 9.13052 59.7596C10.8526 62.9122 12.9225 65.7917 15.9196 67.8686C18.5194 69.6724 21.2433 70.293 24.2322 68.6961C25.325 68.1168 26.5173 67.6948 27.7095 67.3473C30.1851 66.6109 32.7103 66.495 35.2686 66.8922C37.4295 67.2232 39.4414 67.9762 41.3788 68.9526C43.2251 69.8793 45.088 69.8214 46.9509 69.0519C49.8321 67.8521 51.9351 65.7172 53.6903 63.2349C58.4261 56.5491 60.4877 49.0194 60.6533 40.1326L60.645 40.116ZM13.2702 4.37026C13.3199 4.65159 13.3365 4.8419 13.3944 5.01567C14.3466 8.39166 16.4495 10.7913 19.6537 12.1814C23.0068 13.6377 26.5587 12.8433 30.1271 13.0916C29.0922 9.04534 26.7574 6.31476 22.924 4.98257C19.8027 3.89861 16.5406 4.56885 13.2785 4.35371L13.2702 4.37026Z" fill="#D85252"/>
</svg>
