<svg width="27" height="28" viewBox="0 0 27 28" fill="none" xmlns="http://www.w3.org/2000/svg">
<g clip-path="url(#clip0_1149_3294)">
<rect y="0.224609" width="26.9869" height="27" rx="13.4934" fill="#FFFADD"/>
<path d="M13.4934 27.2115C20.8752 27.2115 26.9869 21.0865 26.9869 13.718C26.9869 6.33633 20.8619 0.224609 13.4802 0.224609C6.11172 0.224609 0 6.33633 0 13.718C0 21.0865 6.12495 27.2115 13.4934 27.2115ZM13.4934 24.9625C7.2494 24.9625 2.26213 19.962 2.26213 13.718C2.26213 7.47401 7.23618 2.47352 13.4802 2.47352C19.7241 2.47352 24.7379 7.47401 24.7379 13.718C24.7379 19.962 19.7374 24.9625 13.4934 24.9625Z" fill="#775B43"/>
</g>
<defs>
<clipPath id="clip0_1149_3294">
<rect y="0.224609" width="26.9869" height="27" rx="13.4934" fill="white"/>
</clipPath>
</defs>
</svg>
