<svg width="95" height="76" viewBox="0 0 95 76" fill="none" xmlns="http://www.w3.org/2000/svg">
<path d="M48.8134 9.68439C48.8734 7.93439 48.2934 6.42439 47.2034 5.08439C46.3234 4.00439 45.5534 2.90439 45.5534 1.39439C45.5534 0.504389 44.7434 -0.0556117 43.9134 0.00438826C43.0734 0.0643883 42.5234 0.694388 42.4934 1.62439C42.4334 3.54439 43.1734 5.18439 44.4334 6.55439C46.0934 8.36439 46.2034 10.9444 44.4334 12.8744C41.8134 15.7344 41.8134 20.0144 44.4434 22.9344C45.2234 23.8044 45.6934 24.7944 45.7634 25.9944C45.8334 27.0744 46.5034 27.6444 47.4034 27.5844C48.3334 27.5244 48.8234 26.8144 48.8234 25.6844C48.8234 23.7144 47.8834 22.1544 46.6634 20.7244C45.8134 19.7244 45.3534 18.5544 45.6634 17.3144C45.9134 16.3444 46.4434 15.3944 47.0434 14.5844C48.1434 13.1044 48.8934 11.5444 48.8034 9.67439L48.8134 9.68439ZM35.9534 17.3544C35.9134 19.3044 36.1534 21.2144 36.9134 23.0344C37.3834 24.1544 38.1334 24.5744 39.0434 24.1944C39.9434 23.8144 40.2234 23.0144 39.7834 21.8844C39.1834 20.3344 38.9934 18.7344 39.0834 17.0944C39.2134 14.8044 40.1134 12.8344 41.4834 11.0144C41.8234 10.5644 42.1034 9.87439 42.0134 9.36439C41.9234 8.91439 41.3234 8.31439 40.8734 8.24439C40.3834 8.16439 39.6434 8.46439 39.3034 8.86439C37.2134 11.2944 36.0334 14.1044 35.9634 17.3544H35.9534ZM55.4034 9.72439C55.4834 9.70439 55.5734 9.68439 55.6534 9.66439C55.2234 7.92439 54.8634 6.15439 54.3434 4.44439C54.0234 3.38439 53.1334 3.01439 52.2534 3.35439C51.4234 3.67439 51.0934 4.52439 51.4734 5.52439C53.0034 9.60439 52.4234 13.3444 49.6934 16.7544C49.0034 17.6144 49.0934 18.5244 49.8434 19.1044C50.5434 19.6444 51.4634 19.4944 52.1134 18.6944C54.2534 16.0844 55.3934 13.1144 55.4134 9.72439H55.4034Z" fill="white"/>
<path d="M94.5834 67.4243C94.1034 68.2743 93.3634 68.5143 92.4134 68.5043C88.9034 68.4743 85.3934 68.5144 81.8834 68.4743C81.0634 68.4743 80.5134 68.6643 80.0534 69.3743C79.3934 70.3743 78.6334 71.3143 77.9134 72.2643C76.5434 74.0743 74.7334 75.0043 72.4434 75.0043C55.6634 75.0043 38.8834 75.0043 22.1034 75.0043C19.8934 75.0043 18.1134 74.1143 16.7634 72.3843C15.9934 71.3843 15.2034 70.4043 14.5034 69.3543C14.0534 68.6743 13.5334 68.4843 12.7534 68.4943C9.24343 68.5343 5.73343 68.5143 2.22343 68.5143C1.91343 68.5143 1.60343 68.5143 1.30343 68.4643C0.453428 68.2943 -0.0465719 67.6343 0.00342811 66.8243C0.0534281 65.9743 0.653428 65.4243 1.62343 65.4143C3.47343 65.3943 5.31343 65.4143 7.16343 65.4143C7.46343 65.4143 7.76343 65.4143 8.11343 65.4143C8.30343 62.6143 8.76343 59.9343 9.98343 57.5043C11.1834 55.0943 12.6134 52.8043 14.0134 50.3643C11.8234 47.7043 9.92343 44.5843 9.02343 40.9843C8.55343 39.1243 8.31343 37.1843 8.18343 35.2643C8.05343 33.4343 9.03343 32.8043 10.7434 33.3743C15.5934 35.0043 20.0534 37.3643 24.0434 40.5843C24.1634 40.6843 24.2834 40.7643 24.3734 40.8343C26.1534 39.6243 27.8634 38.3643 29.6634 37.2643C34.9634 34.0343 40.7234 32.1343 46.8834 31.4243C56.8634 30.2643 66.2134 32.1443 74.8734 37.2643C80.0134 40.2943 84.2334 44.3243 87.5734 49.2843C88.2134 50.2443 88.2034 51.0143 87.5634 51.9643C83.9034 57.4143 79.1634 61.6543 73.4234 64.8243C73.1634 64.9643 72.9034 65.1143 72.6734 65.4243H73.6334C79.9134 65.4243 86.1934 65.4343 92.4734 65.4044C93.3734 65.4044 94.0934 65.5843 94.6034 66.3543V67.4643L94.5834 67.4243ZM11.3934 64.2243C11.7634 64.0943 12.0034 64.0243 12.2234 63.9343C16.1934 62.3343 19.8034 60.1544 23.0534 57.3643C24.1734 56.4044 24.7134 56.4743 25.8834 57.3643C27.7134 58.7543 29.6034 60.0743 31.4934 61.3843C31.7134 61.5343 32.1534 61.5043 32.4434 61.4143C33.4334 61.1243 34.4134 60.7843 35.3934 60.4443C35.7134 60.3343 36.0934 60.2143 36.3134 59.9743C39.2134 56.8843 43.1434 56.3143 46.7634 58.5243C47.3434 58.8743 47.5534 58.7143 47.7934 58.1043C47.0434 57.3743 46.3034 56.6343 45.5234 55.9443C45.3434 55.7843 44.9834 55.6943 44.7434 55.7443C41.9334 56.2843 39.2634 55.7444 37.2534 53.8344C35.5834 52.2444 33.8534 51.9243 31.7934 52.0943C30.9934 52.1543 30.1934 52.1043 29.3934 52.1043C27.2034 52.1043 25.0234 52.1143 22.8334 52.0943C21.9634 52.0943 21.3434 51.5043 21.2734 50.7043C21.2034 49.9343 21.7434 49.2243 22.5734 49.0543C22.8734 48.9943 23.1834 48.9943 23.4934 48.9943C26.4834 48.9943 29.4634 48.9943 32.4534 48.9943C32.7734 48.9943 33.1034 48.9943 33.3334 48.9943C33.2434 47.6243 33.0434 46.3643 33.1234 45.1343C33.2034 43.9443 33.2834 42.5644 34.6434 42.0043C35.4434 41.6643 36.3534 41.4543 37.2234 41.4143C41.5634 41.2543 45.5134 44.0243 47.0334 48.2643C47.2434 48.8343 47.4934 49.0143 48.0734 49.0043C50.9034 48.9743 53.7334 48.9943 56.5634 48.9843C56.7934 48.9843 57.0234 48.9343 57.2634 48.9143C57.6834 43.9043 59.3834 39.4443 62.4534 35.4243C56.5234 33.9443 50.7234 33.7543 44.9034 34.7943C37.7734 36.0643 31.3934 38.9943 25.8834 43.7543C24.6934 44.7843 24.2134 44.7143 22.9934 43.7643C21.3634 42.5043 19.7534 41.2043 17.9934 40.1443C15.9334 38.9043 13.7334 37.9043 11.4334 36.7143C11.4334 37.1943 11.4334 37.3743 11.4334 37.5543C11.4434 37.7343 11.4734 37.9243 11.5034 38.1043C12.2834 42.2943 14.2234 45.9043 17.0134 49.0843C18.0634 50.2743 17.9934 50.7843 17.0734 52.0443C15.7034 53.9243 14.3434 55.8343 13.2134 57.8543C12.1434 59.7543 11.5734 61.8743 11.3734 64.2343L11.3934 64.2243ZM71.7334 38.9943C71.6034 39.0843 71.5534 39.1043 71.5034 39.1543C71.4134 39.2343 71.3234 39.3243 71.2434 39.4143C67.6834 43.3944 66.2734 48.0443 67.0934 53.3043C67.5834 56.4743 68.9934 59.2443 71.1534 61.6343C71.4834 62.0043 71.7434 62.1343 72.2334 61.8543C77.0034 59.1343 81.0534 55.6143 84.2834 51.1543C84.6134 50.7043 84.6034 50.4043 84.2834 49.9543C80.9634 45.3243 76.7434 41.7243 71.7334 38.9843V38.9943ZM17.8134 68.5443C18.1134 68.9643 18.3334 69.2243 18.4934 69.5143C19.5534 71.3143 21.0734 71.9243 23.1834 71.9143C39.3434 71.8443 55.5034 71.8243 71.6534 71.9243C74.2734 71.9443 75.5034 70.5243 76.7034 68.5443H17.8134ZM65.7834 36.3843C60.2834 42.2743 59.1534 51.1843 61.4934 57.3943C62.6034 57.3143 63.7134 57.2443 64.8634 57.1643C62.5634 49.9243 63.8934 43.4043 68.7034 37.5143C67.6834 37.1243 66.7234 36.7443 65.7834 36.3843ZM57.3734 65.3743C57.1134 63.8043 57.1334 62.3843 57.7434 61.0043C57.8134 60.8343 57.6534 60.4843 57.5034 60.3043C56.0834 58.6443 53.5134 58.1943 51.5334 59.2243C49.5234 60.2743 48.4434 62.6043 49.0034 64.7443C49.0634 64.9843 49.4034 65.3344 49.6234 65.3344C52.1734 65.3744 54.7234 65.3643 57.3734 65.3643V65.3743ZM45.8434 65.3243C45.8434 64.3243 45.7734 63.3743 45.8734 62.4343C45.9234 61.8843 45.7534 61.5843 45.3534 61.2843C43.1334 59.5943 39.9434 60.1243 38.3134 62.5343C37.7534 63.3643 37.1334 63.7543 36.0934 63.5844C34.8134 63.3843 33.4834 64.2243 33.1134 65.3243H45.8634H45.8434ZM16.9734 65.3743C20.8334 65.3743 24.6434 65.3443 28.4434 65.3943C29.3834 65.4043 29.8934 65.1643 29.9234 64.1943C28.1034 62.9143 26.2734 61.6343 24.5234 60.4044C22.0234 62.0443 19.5434 63.6743 16.9734 65.3743ZM47.6334 52.1343C47.1234 53.0743 47.5534 53.6143 48.1434 54.1343C48.6734 54.6043 49.1734 55.1043 49.6434 55.6343C50.0834 56.1343 50.4634 56.3543 51.1934 56.0343C51.9034 55.7243 52.7534 55.5643 53.5234 55.6243C54.9634 55.7343 56.3834 56.0443 57.8234 56.2743C57.6334 55.0243 57.4234 53.5943 57.2034 52.1443H47.6434L47.6334 52.1343ZM44.1134 50.2543C43.6534 46.8343 40.5834 44.3943 37.3034 44.4843C36.4734 44.5043 36.1934 44.8243 36.1734 45.6443C36.0934 48.7843 38.4534 51.9043 41.5434 52.6143C41.7134 52.6543 41.8934 52.6143 42.0734 52.6143C42.1234 52.5543 42.1834 52.4943 42.2334 52.4343C41.7334 51.9843 41.2034 51.5743 40.7534 51.0843C40.1034 50.3643 40.1534 49.4743 40.8134 48.8643C41.4334 48.2843 42.2834 48.2943 42.9634 48.9343C43.3834 49.3343 43.7434 49.8043 44.1234 50.2443L44.1134 50.2543ZM63.6234 65.3743C64.3634 65.3743 65.1034 65.3343 65.8334 65.3843C66.4134 65.4343 66.6634 65.1743 66.8334 64.6743C67.2634 63.3443 66.7834 61.7943 65.6534 60.9543C64.5034 60.1043 62.8434 60.0843 61.6834 60.9243C60.5034 61.7743 60.0134 63.3443 60.4734 64.7043C60.6234 65.1543 60.8534 65.4243 61.4034 65.3843C62.1334 65.3343 62.8834 65.3743 63.6134 65.3743H63.6234Z" fill="#5C7FD9"/>
<path d="M48.8142 9.68433C48.9042 11.5543 48.1442 13.1043 47.0542 14.5943C46.4542 15.4043 45.9142 16.3543 45.6742 17.3243C45.3542 18.5643 45.8142 19.7343 46.6742 20.7343C47.8942 22.1643 48.8242 23.7243 48.8342 25.6943C48.8342 26.8243 48.3542 27.5243 47.4142 27.5943C46.5142 27.6543 45.8342 27.0843 45.7742 26.0043C45.7042 24.8043 45.2342 23.8043 44.4542 22.9443C41.8242 20.0243 41.8242 15.7443 44.4442 12.8843C46.2142 10.9543 46.1142 8.37433 44.4442 6.56433C43.1842 5.19433 42.4442 3.55433 42.5042 1.63433C42.5342 0.704331 43.0842 0.0743307 43.9242 0.0143307C44.7542 -0.0456693 45.5642 0.52433 45.5642 1.40433C45.5642 2.92433 46.3342 4.01433 47.2142 5.09433C48.2942 6.43433 48.8842 7.94433 48.8242 9.69433L48.8142 9.68433Z" fill="#5C7FD9"/>
<path d="M35.9537 17.3643C36.0237 14.1243 37.2137 11.3043 39.2937 8.87432C39.6337 8.48432 40.3737 8.18432 40.8637 8.25432C41.3137 8.32432 41.9137 8.92432 42.0037 9.37432C42.1037 9.87432 41.8137 10.5743 41.4737 11.0243C40.1037 12.8343 39.2037 14.8043 39.0737 17.1043C38.9837 18.7543 39.1837 20.3543 39.7737 21.8943C40.2037 23.0243 39.9337 23.8243 39.0337 24.2043C38.1237 24.5843 37.3737 24.1643 36.9037 23.0443C36.1437 21.2243 35.9037 19.3143 35.9437 17.3643H35.9537Z" fill="#5C7FD9"/>
<path d="M55.3938 9.73447C55.3738 13.1245 54.2338 16.0945 52.0938 18.7045C51.4438 19.4945 50.5238 19.6545 49.8238 19.1145C49.0738 18.5345 48.9838 17.6245 49.6738 16.7645C52.4038 13.3545 52.9838 9.62447 51.4538 5.53447C51.0838 4.54447 51.4138 3.69447 52.2338 3.36447C53.1138 3.01447 54.0038 3.38447 54.3238 4.45447C54.8438 6.17447 55.2038 7.93447 55.6338 9.67447C55.5538 9.69447 55.4638 9.71447 55.3838 9.73447H55.3938Z" fill="#5C7FD9"/>
<path d="M74.3229 45.7742C75.6229 45.7742 76.6629 46.8142 76.6629 48.1142C76.6629 49.4142 75.6229 50.4442 74.3229 50.4542C72.9829 50.4542 71.8829 49.3742 71.9229 48.0642C71.9529 46.7742 73.0229 45.7642 74.3329 45.7742H74.3229Z" fill="#5C7FD9"/>
</svg>
