<svg width="56" height="56" viewBox="0 0 56 56" fill="none" xmlns="http://www.w3.org/2000/svg">
<rect x="0.636475" y="0.0685883" width="55" height="55" rx="10" fill="#775B43"/>
<path d="M13.9249 41.7266C15.0372 42.7213 16.4827 42.7654 17.7371 42.0059C18.3153 41.658 18.8886 41.2954 19.4619 40.9426C21.6914 39.5657 23.9111 38.1741 26.1259 36.7776C27.7919 35.729 29.4579 34.6755 31.1141 33.6171C32.6037 32.6665 34.0247 31.5738 35.1076 30.1626C36.4405 28.4329 37.0579 26.2671 36.4258 24.1307C35.8623 22.2393 34.5392 20.6027 32.7948 19.6766C31.1582 18.8093 29.2423 18.6084 27.493 19.2699C24.3178 20.4753 22.4999 23.5231 20.7702 26.2524C19.0356 28.9866 17.3108 31.7208 15.6007 34.4697C15.096 35.2782 14.5962 36.0818 14.0964 36.8952C13.5966 37.7086 13.0037 38.5416 13.0135 39.5706C13.0233 40.4036 13.3712 41.1141 13.9151 41.7266C14.459 42.3391 15.3018 41.4473 14.7824 40.8593C13.8906 39.8548 14.3218 38.865 14.9245 37.8801C15.3361 37.2137 15.7477 36.5473 16.1593 35.8809C17.5705 33.6073 18.9964 31.3386 20.4272 29.0748C21.3974 27.5411 22.3333 25.978 23.3574 24.4786C24.2296 23.1997 25.2782 21.96 26.5865 21.1025C28.0908 20.1176 29.845 19.804 31.5404 20.4459C33.0447 21.0143 34.1178 22.058 34.8431 23.4643C35.5682 24.8706 35.6613 26.6297 34.9361 28.1242C33.5102 31.0691 30.3105 32.6714 27.6694 34.3374C25.0675 35.9838 22.4656 37.6204 19.849 39.2472C19.1238 39.698 18.3986 40.1439 17.6734 40.5947C16.7522 41.1631 15.7526 41.7266 14.7775 40.8544C14.1895 40.3301 13.3222 41.1925 13.9102 41.7217L13.9249 41.7266Z" fill="#FFFADD"/>
<path d="M33.5396 21.6954C33.7699 21.9453 34.2599 21.9355 34.5686 21.9502C35.1566 21.9796 35.7544 21.911 36.3277 21.7787C38.2436 21.3279 39.7871 19.9951 40.8259 18.3634C41.7961 16.8346 42.3596 15.0657 42.7222 13.3066C42.8202 12.8313 42.4429 12.4589 41.9676 12.552C39.3657 13.0812 36.6658 14.1445 34.9802 16.2956C34.0296 17.5059 33.4661 18.9857 33.4073 20.5292C33.3926 20.8575 33.4073 21.1809 33.4612 21.5043C33.5151 21.8277 33.9218 22.0139 34.2158 21.9306C34.5637 21.8326 34.696 21.5043 34.6421 21.176C34.6274 21.0829 34.647 21.3671 34.6568 21.2887C34.6617 21.2495 34.647 21.1956 34.6421 21.1564C34.6323 20.9996 34.6274 20.8428 34.6274 20.686C34.6274 20.4557 34.647 20.2303 34.6715 20.0049C34.6813 19.8971 34.6715 20.0294 34.6666 20.0441C34.6715 20 34.6764 19.9608 34.6862 19.9167C34.696 19.8579 34.7058 19.7991 34.7156 19.7403C34.745 19.5835 34.7793 19.4267 34.8234 19.2699C34.9116 18.9465 35.0488 18.5594 35.137 18.3683C35.3085 18.0008 35.5094 17.6431 35.7397 17.3099C36.2395 16.5945 36.9843 15.9232 37.7683 15.4234C39.1403 14.5463 40.7083 14.0563 42.291 13.7329L41.5364 12.9783C41.0366 15.3891 40.1497 17.9763 38.1505 19.559C37.6115 19.9853 36.9451 20.3234 36.3081 20.5145C36.1611 20.5586 36.0092 20.5978 35.8622 20.6272C35.7887 20.6419 35.7152 20.6566 35.6368 20.6713C35.5878 20.6811 35.3624 20.7105 35.5437 20.686C35.2938 20.7154 35.0439 20.735 34.794 20.7301C34.6029 20.7301 34.4167 20.7105 34.2305 20.6958C34.5098 20.7203 34.255 20.7252 34.2109 20.6909C34.206 20.6909 34.1717 20.6811 34.1619 20.6811C34.0688 20.6909 33.667 20.0343 34.4069 20.833C33.8679 20.2548 33.0055 21.1221 33.5396 21.7003V21.6954Z" fill="#FFFADD"/>
<path d="M34.5006 22.6411C34.53 22.8518 34.7701 23.087 34.8926 23.2291C35.1572 23.5329 35.4757 23.7926 35.8089 24.0131C36.9457 24.753 38.3373 24.8755 39.6407 24.6158C40.8216 24.3806 41.9339 23.8318 42.9482 23.1997C43.3598 22.9449 43.3255 22.4059 42.9482 22.1413C41.1989 20.9261 38.9596 20.0147 36.8232 20.7056C35.951 20.9849 35.1131 21.5043 34.5545 22.2393C34.3536 22.5039 34.5153 22.9253 34.775 23.0772C35.0886 23.2634 35.412 23.1213 35.6129 22.8567C35.4169 23.1115 35.5933 22.8861 35.6472 22.8273C35.7501 22.7146 35.8628 22.6166 35.9755 22.5186C36 22.499 36.1519 22.3814 36.0196 22.4843C36.0588 22.4549 36.0931 22.4304 36.1323 22.401C36.245 22.3275 36.3577 22.2491 36.4753 22.1854C36.7595 22.0237 36.8624 21.9796 37.1466 21.8865C38.94 21.3083 40.8216 22.156 42.3259 23.1997V22.1413C40.7481 23.1213 38.8077 23.9347 37.0192 23.2683C36.6419 23.1311 36.245 22.8616 35.951 22.5725C35.8873 22.5088 35.8236 22.4402 35.7599 22.3716C35.7158 22.3226 35.5884 22.1315 35.7207 22.3324C35.6962 22.2981 35.6472 22.2589 35.6374 22.2197C35.608 22.1119 35.6521 22.2099 35.6717 22.3177C35.6227 21.9894 35.2111 21.8081 34.9171 21.8914C34.5643 21.9894 34.4418 22.3177 34.4908 22.646L34.5006 22.6411Z" fill="#FFFADD"/>
<path d="M33.4178 19.4904C33.6971 19.4316 33.8098 19.5688 33.6236 19.4561C33.5893 19.4365 33.5403 19.4218 33.506 19.412C33.6873 19.4757 33.5599 19.4365 33.4766 19.3973C33.3394 19.3336 33.2071 19.2552 33.0797 19.1719C33.0111 19.1278 32.9474 19.0788 32.8788 19.0347C32.7906 18.9759 32.967 19.1082 32.8592 19.02C32.8151 18.9808 32.771 18.9465 32.7318 18.9073C32.33 18.5496 32.183 18.3585 31.938 17.8783C31.7028 17.4275 31.5313 16.7611 31.4921 16.1829C31.4186 15.1147 31.6146 14.0661 31.9037 13.042L30.8796 13.3115C31.7861 14.0514 32.6191 14.8991 33.1434 15.9526C33.4717 16.6092 33.6138 17.2658 33.5844 17.9567C33.5844 18.04 33.5746 18.1184 33.5697 18.2017C33.5697 18.2409 33.5599 18.2801 33.555 18.3193C33.5648 18.2507 33.5648 18.2556 33.555 18.3291C33.5354 18.4516 33.5109 18.5741 33.4766 18.6966C33.4423 18.8191 33.408 18.9465 33.3639 19.069C33.3492 19.1082 33.3345 19.1523 33.3198 19.1915C33.261 19.3581 33.3443 19.1425 33.3051 19.2307C33.2169 19.4267 33.1238 19.6227 32.9915 19.7942C32.7955 20.0588 32.9474 20.4802 33.212 20.6321C33.5256 20.8134 33.8539 20.6811 34.0499 20.4116C35.1916 18.8779 34.9368 16.6141 34.0499 15.0461C33.4766 14.0318 32.6436 13.1743 31.7469 12.4393C31.399 12.1551 30.86 12.2335 30.7228 12.7088C30.2083 14.5218 29.978 16.5406 30.7914 18.3046C31.2079 19.2013 31.938 19.9853 32.8298 20.4263C33.114 20.5684 33.4325 20.7301 33.7559 20.6664C34.5301 20.5096 34.2018 19.3287 33.4325 19.4855L33.4178 19.4904Z" fill="#FFFADD"/>
</svg>
