<svg width="28" height="28" viewBox="0 0 28 28" fill="none" xmlns="http://www.w3.org/2000/svg">
<g clip-path="url(#clip0_1141_2894)">
<path d="M14.4222 27.9802C21.8291 27.9802 27.9616 21.8344 27.9616 14.4408C27.9616 7.03392 21.8158 0.901367 14.4089 0.901367C7.01537 0.901367 0.882812 7.03392 0.882812 14.4408C0.882812 21.8344 7.02863 27.9802 14.4222 27.9802ZM10.3604 20.7194C9.77634 20.7194 9.33829 20.3078 9.33829 19.7637C9.33829 19.4849 9.40467 19.2991 9.57722 19.0468L13.055 14.2417L9.77634 9.72852C9.55068 9.42322 9.48431 9.23739 9.48431 8.93209C9.48431 8.37459 9.97544 7.91 10.5595 7.91C11.0241 7.91 11.2896 8.08255 11.6081 8.5206L14.5151 12.7417H14.5815L17.4487 8.53387C17.7406 8.08255 18.0194 7.91 18.4442 7.91C19.0282 7.91 19.4795 8.33476 19.4795 8.87899C19.4795 9.1312 19.4132 9.35685 19.2141 9.60906L15.7629 14.308L19.1876 18.9937C19.3734 19.2326 19.453 19.4317 19.453 19.7105C19.453 20.3078 18.9884 20.7194 18.3645 20.7194C17.9398 20.7194 17.6876 20.5601 17.3425 20.0821L14.3957 15.8743H14.3426L11.3825 20.0821C11.0241 20.5601 10.7984 20.7194 10.3604 20.7194Z" fill="#D75D56"/>
</g>
<defs>
<clipPath id="clip0_1141_2894">
<rect width="27.0788" height="27.092" fill="white" transform="translate(0.882812 0.901367)"/>
</clipPath>
</defs>
</svg>
