<svg width="28" height="28" viewBox="0 0 28 28" fill="none" xmlns="http://www.w3.org/2000/svg">
<rect x="0.867188" y="0.876953" width="27.0898" height="27.0898" rx="13.5449" fill="#FFFADD"/>
<g clip-path="url(#clip0_1141_2904)">
<path d="M14.4183 27.9665C21.8252 27.9665 27.9577 21.8207 27.9577 14.4271C27.9577 7.02025 21.8119 0.887695 14.405 0.887695C7.01146 0.887695 0.878906 7.02025 0.878906 14.4271C0.878906 21.8207 7.02473 27.9665 14.4183 27.9665ZM10.3565 20.7057C9.77244 20.7057 9.33439 20.2941 9.33439 19.75C9.33439 19.4712 9.40076 19.2854 9.57332 19.0331L13.0511 14.228L9.77244 9.71485C9.54677 9.40955 9.4804 9.22371 9.4804 8.91841C9.4804 8.36092 9.97154 7.89633 10.5556 7.89633C11.0202 7.89633 11.2857 8.06888 11.6042 8.50693L14.5112 12.728H14.5776L17.4448 8.52019C17.7367 8.06888 18.0155 7.89633 18.4403 7.89633C19.0243 7.89633 19.4756 8.32109 19.4756 8.86532C19.4756 9.11753 19.4093 9.34318 19.2102 9.59539L15.759 14.2944L19.1836 18.98C19.3695 19.2189 19.4491 19.4181 19.4491 19.6969C19.4491 20.2941 18.9845 20.7057 18.3606 20.7057C17.9359 20.7057 17.6837 20.5464 17.3386 20.0685L14.3918 15.8606H14.3387L11.3786 20.0685C11.0202 20.5464 10.7945 20.7057 10.3565 20.7057Z" fill="#D75D56"/>
</g>
<defs>
<clipPath id="clip0_1141_2904">
<rect width="27.0788" height="27.092" fill="white" transform="translate(0.878906 0.887695)"/>
</clipPath>
</defs>
</svg>
