<svg width="56" height="56" viewBox="0 0 56 56" fill="none" xmlns="http://www.w3.org/2000/svg">
<rect x="0.636475" y="0.0685883" width="55" height="55" rx="10" fill="#775B43"/>
<path d="M40.9704 21.617C43.0529 25.6252 41.8083 31.0985 38.981 34.4109C37.0308 36.6943 34.3309 38.0761 31.4056 38.6396C27.9658 39.3011 24.1928 39.0071 21.0715 37.346C16.1078 34.7 13.0894 28.5701 14.7701 23.0576C14.9514 22.4647 15.3826 21.8179 15.3826 21.1956C15.3875 20.343 14.6868 19.2748 15.4708 18.5741C15.6815 18.383 16.0147 18.2458 16.294 18.3046C16.5733 18.3634 16.7497 18.4761 17.0584 18.4418C17.9012 18.3536 18.6999 17.7166 19.4055 17.2854C20.3022 16.7415 21.2381 16.227 22.0613 15.5704C23.1491 14.6982 24.6436 13.5271 26.1136 13.5908C27.5836 13.6545 28.9115 14.5169 30.3619 14.4924C31.1116 14.4826 31.8613 14.3846 32.611 14.3405C33.2578 14.3013 34.081 14.1788 34.7131 14.3895C35.2178 14.561 35.6686 15.1294 36.041 15.4969C36.6143 16.0653 37.1631 16.6533 37.7119 17.2462C38.0941 17.6578 38.4665 18.0988 38.8879 18.4761C39.2554 18.8044 39.7797 18.7946 40.1423 19.1229C40.4804 19.4316 40.5049 20.0588 40.6274 20.4802C40.7205 20.8085 40.8136 21.1368 40.9214 21.4602C41.1615 22.2099 42.3424 21.8865 42.1023 21.1368C41.8377 20.3087 41.7593 19.2307 41.2399 18.5251C41.0096 18.2115 40.696 17.9861 40.3432 17.8293C40.1864 17.7607 40.0149 17.6823 39.8483 17.6431C39.7944 17.6284 39.7454 17.6088 39.6964 17.5941C39.7356 17.6039 39.8924 17.7362 39.7993 17.6529C38.7507 16.668 37.8393 15.5459 36.8103 14.5414C36.3399 14.0808 35.8107 13.4781 35.1737 13.2576C34.473 13.0126 33.6449 13.0714 32.9148 13.1057C32.1161 13.1449 31.3223 13.2429 30.5187 13.2723C29.916 13.2968 29.4113 13.1106 28.7792 12.9244C27.8776 12.6598 26.9221 12.3756 25.9764 12.3707C25.0797 12.3658 24.2222 12.7431 23.448 13.1694C22.7179 13.5712 22.0368 14.0563 21.3851 14.5659C21.2381 14.6786 21.096 14.806 20.949 14.9187C21.1744 14.7423 20.8216 14.9824 20.7089 15.051C19.9837 15.5018 19.2536 15.9526 18.5186 16.3985C18.1658 16.6092 17.8179 16.8346 17.4553 17.0257C17.2789 17.1188 17.0633 17.2511 16.8575 17.2364C17.0192 17.2511 16.4851 17.0894 16.4263 17.0796C15.5786 16.9473 14.6819 17.4716 14.236 18.1674C13.6431 19.0788 14.0057 19.9804 14.1429 20.9555C14.1919 21.3181 14.0204 21.568 13.8881 21.9012C13.7558 22.2344 13.6431 22.5627 13.5451 22.9008C13.3442 23.6015 13.2217 24.3267 13.1531 25.0519C13.0159 26.4925 13.1482 27.9625 13.4863 29.3639C14.2262 32.4264 16.0245 35.2047 18.5186 37.1353C21.4733 39.4236 25.1924 40.3203 28.887 40.1537C32.3268 39.9969 35.7225 38.9679 38.3881 36.7335C42.3473 33.4113 44.2632 27.4578 42.6609 22.4843C42.4943 21.9747 42.2885 21.4749 42.0435 20.9996C41.6809 20.2989 40.6225 20.9163 40.9851 21.617H40.9704Z" fill="#FFFADD"/>
<path d="M34.5509 13.4536C32.4439 14.0906 30.5672 15.1784 28.9404 16.6729C28.3573 17.207 29.2246 18.0743 29.8077 17.5402C30.7632 16.6582 31.8314 15.9134 33.0074 15.345C33.1152 15.2911 33.223 15.2421 33.3357 15.1931C33.3945 15.1686 33.4484 15.1441 33.5072 15.1196C33.6052 15.0755 33.4925 15.1245 33.5513 15.1C33.7375 15.0265 33.9237 14.953 34.1099 14.8844C34.3647 14.7962 34.6195 14.7178 34.8792 14.6394C35.6338 14.414 35.3104 13.2282 34.5558 13.4585L34.5509 13.4536Z" fill="#FFFADD"/>
<path d="M15.3191 18.9906C16.3579 18.5006 17.382 19.51 18.0092 20.2303C18.6364 20.9506 19.2489 21.6072 20.1162 22.0188C19.8908 21.911 20.0133 21.9698 20.1064 22.0335C20.1554 22.0629 20.3122 22.1903 20.1505 22.058C20.2142 22.1119 20.2779 22.1658 20.3416 22.2246C20.7238 22.5921 20.9737 22.9939 21.2383 23.5476C21.7773 24.6697 22.0321 25.9388 22.1889 27.1638C22.233 27.4921 22.4388 27.7714 22.8014 27.7763C23.1003 27.7763 23.458 27.4921 23.4139 27.1638C23.164 25.2087 22.7328 22.9449 21.3118 21.4651C21.1011 21.2446 20.861 21.0486 20.5915 20.9065C20.1652 20.6762 20.714 21.0045 20.5082 20.8673C20.3416 20.7546 20.1652 20.6664 20.0035 20.5439C19.489 20.147 19.1166 19.6227 18.6756 19.1572C17.627 18.04 16.206 17.2315 14.6968 17.9469C13.9863 18.2801 14.6037 19.3385 15.3142 19.0053L15.3191 18.9906Z" fill="#FFFADD"/>
<path d="M29.2145 38.7376C29.5232 38.865 29.1753 38.7082 29.0871 38.6543C28.847 38.5122 28.6755 38.3897 28.5138 38.2525C27.8033 37.6547 27.2447 36.9148 26.8086 36.0965C26.0736 34.7196 25.7061 33.1467 25.564 31.5983C25.4219 30.0499 25.27 28.2516 25.8041 26.7865C25.9217 26.4631 26.0491 26.2377 26.2843 26.0515C26.2157 26.1054 26.4607 25.9535 26.5195 25.929C26.4264 25.9731 26.7155 25.8702 26.7939 25.8457C27.3182 25.6987 27.818 25.586 28.2002 25.1646C28.6118 24.7138 28.847 24.1601 28.9989 23.5819C29.1263 23.0968 29.4595 22.9694 29.9446 22.8616C30.6355 22.7097 31.3509 22.6068 31.9389 22.1903C32.4926 21.7983 32.8062 21.1956 33.3648 20.7987C34.1537 20.2401 34.3987 19.3875 34.8985 18.6035C35.3297 17.9273 35.7903 17.6186 36.5645 17.8587C37.9561 18.285 39.5339 19.1866 41.0284 18.9563C41.8075 18.8338 41.4743 17.6578 40.705 17.7754C40.1121 17.8685 39.3232 17.5059 38.7744 17.3246C38.0786 17.0943 37.3975 16.8052 36.6919 16.619C36.0206 16.4426 35.3738 16.5161 34.8005 16.9228C33.9724 17.5108 33.6637 18.4271 33.1639 19.2601C32.8258 19.8236 32.1741 20.0686 31.7576 20.5831C31.5077 20.8918 31.3313 21.1809 30.954 21.3475C30.6159 21.4945 30.2386 21.5533 29.8809 21.6268C29.19 21.7689 28.5579 21.9453 28.1316 22.548C27.8376 22.9645 27.8327 23.4496 27.5926 23.8759C27.5093 24.0229 27.3378 24.2826 27.2937 24.3365C27.3525 24.263 27.1516 24.459 27.2349 24.3953C27.2545 24.3806 26.9556 24.5325 27.0683 24.4884C26.8331 24.5766 26.5832 24.6158 26.3431 24.6893C25.6228 24.9098 25.0838 25.3704 24.7702 26.0564C24.1185 27.4725 24.2018 29.2463 24.2753 30.7604C24.3635 32.5587 24.682 34.3472 25.4023 35.9985C26.0834 37.5518 27.2545 39.2178 28.8764 39.9038C29.6016 40.2076 29.9201 39.0267 29.1998 38.7229L29.2145 38.7376Z" fill="#FFFADD"/>
<path d="M32.8808 38.2868C32.4104 38.4044 32.0527 38.9091 31.7783 39.2717C31.6215 39.4726 31.4745 39.6833 31.352 39.9038C31.303 39.9871 31.2638 40.0753 31.2246 40.1635C31.1903 40.237 31.1609 40.3105 31.1364 40.384C31.1315 40.4036 31.1217 40.4232 31.1168 40.4477C31.0874 40.531 31.1903 40.3448 31.0972 40.482C30.9992 40.629 30.8375 40.8005 30.6513 40.923C30.3965 41.0847 30.2397 41.1582 29.9359 41.2121C29.8624 41.2268 29.9359 41.2121 29.9506 41.2121C29.9114 41.2121 29.8771 41.2121 29.8379 41.217C29.833 41.217 29.8281 41.217 29.8232 41.217C29.7791 41.217 29.735 41.217 29.6909 41.217H28.1425C27.3536 41.217 27.3536 42.442 28.1425 42.442C28.7158 42.442 29.294 42.4616 29.8673 42.442C30.5435 42.4175 31.1952 42.099 31.695 41.658C31.9449 41.4375 32.1458 41.1631 32.2683 40.8495C32.2879 40.8054 32.3075 40.7564 32.3173 40.7074C32.3418 40.6045 32.2634 40.8005 32.3173 40.6976C32.3761 40.5898 32.43 40.482 32.4937 40.3742C32.5721 40.2468 32.6554 40.1243 32.7436 40.0067C32.7632 39.9822 32.7779 39.9577 32.7975 39.9332C32.7583 39.9822 32.7975 39.9381 32.8122 39.9136C32.8612 39.8548 32.9102 39.796 32.9592 39.7372C33.0376 39.649 33.1209 39.5657 33.2042 39.4824C33.2189 39.4677 33.2385 39.4579 33.2532 39.4383C33.2973 39.3795 33.1454 39.502 33.2336 39.453C33.3561 39.3844 33.1601 39.4726 33.2042 39.4579C33.9686 39.2619 33.6452 38.081 32.8808 38.277V38.2868Z" fill="#FFFADD"/>
<path d="M21.0905 16.1682C20.8749 16.2025 21.0954 16.1682 21.2032 16.1682C21.3698 16.1584 21.5462 16.1584 21.7128 16.1829C22.2028 16.2466 22.6928 16.4573 23.0064 16.8493C23.369 17.3001 23.4425 17.8489 23.957 18.1919C24.3686 18.4663 24.8684 18.5349 25.3535 18.5643C26.554 18.628 27.7643 18.4663 28.8129 19.2013C29.7439 19.853 30.6014 21.1368 30.915 22.2295C31.1306 22.9841 32.3164 22.6656 32.0959 21.9061C31.8068 20.8918 31.1747 19.9755 30.5181 19.1621C29.7684 18.2262 28.7394 17.6137 27.5536 17.4422C27.0293 17.3638 26.5099 17.354 25.9807 17.354C25.5985 17.354 25.1575 17.3932 24.79 17.256C24.4225 17.1188 24.3539 16.6925 24.153 16.374C23.8688 15.9232 23.4621 15.5459 22.9819 15.3107C22.3008 14.9775 21.507 14.8795 20.7622 14.9971C20.0174 15.1147 20.3163 16.3054 21.0856 16.178L21.0905 16.1682Z" fill="#FFFADD"/>
<path d="M23.0691 39.4677C23.1475 39.4873 22.9123 39.4187 23.0152 39.4432C23.0299 39.4432 23.0593 39.4726 23.0691 39.4775C23.0642 39.4775 22.9809 39.3942 23.0201 39.4432C23.0789 39.5216 23.172 39.5853 23.2406 39.6588C23.4513 39.8891 23.5052 39.9577 23.6718 40.2076C23.7355 40.3007 23.7992 40.3987 23.8531 40.4967C23.8825 40.5506 23.9119 40.5996 23.9364 40.6535C23.9462 40.6731 23.956 40.6976 23.9658 40.7172C24.005 40.7956 23.9315 40.6143 23.9511 40.6878C24.0344 40.9916 24.201 41.2611 24.4166 41.4914C24.838 41.9569 25.4799 42.3097 26.1022 42.4028C26.4305 42.4518 26.7588 42.4371 27.092 42.4371H28.1357C28.9246 42.4371 28.9246 41.2121 28.1357 41.2121C27.5722 41.2121 27.0038 41.2268 26.4354 41.2121C26.4011 41.2121 26.2688 41.1974 26.3668 41.2121C26.3031 41.2023 26.2443 41.1876 26.1855 41.1729C26.0385 41.1337 25.9601 41.0994 25.867 41.0553C25.5975 40.9181 25.426 40.8103 25.2447 40.58C25.2006 40.5261 25.2398 40.5702 25.2447 40.58C25.2202 40.5457 25.2055 40.5114 25.181 40.4771C25.1222 40.3889 25.181 40.5114 25.1565 40.4134C25.1173 40.2909 25.0634 40.1684 25.0095 40.0508C24.9066 39.8303 24.7694 39.6294 24.6273 39.4285C24.3333 39.0218 23.9217 38.4093 23.3974 38.2721C22.633 38.0761 22.3096 39.257 23.074 39.453L23.0691 39.4677Z" fill="#FFFADD"/>
</svg>
