<?xml version="1.0" encoding="UTF-8"?>
<svg id="Camada_1" data-name="Camada 1" xmlns="http://www.w3.org/2000/svg" viewBox="0 0 100 100">
  <defs>
    <style>
      .cls-1 {
        fill: #543417;
        stroke-width: 0px;
      }
    </style>
  </defs>
  <path class="cls-1" d="m11.13,35.18c5.36,1.1,10.42,4.51,14.01,8.61.47.54,1.28.41,1.77,0,6.54-5.57,14.69-9.1,23.24-10.03,4.18-.45,8.41-.41,12.54.4,5.9,1.15,11.11,3.81,15.93,7.35,2.12,1.56,4.18,3.22,6.14,4.98,1.06.95,3.48,2.41,2.61,4.04-.57,1.08-1.59,1.93-2.5,2.73-1.47,1.29-2.98,2.55-4.51,3.77-4.17,3.34-8.51,6.2-13.65,7.81-4.6,1.44-9.42,1.92-14.21,1.61-9.39-.59-18.4-4.12-25.57-10.24-.48-.41-1.3-.54-1.77,0-3.44,4-8.4,7.15-13.56,8.21l1.41.57c.18.43.08.25.02,0-.06-.27-.14-.52-.19-.79-.13-.72-.14-1.83-.03-2.75.47-3.97,2.79-7.58,5.29-10.58.46-.55.47-1.21,0-1.77-2.63-3.14-4.96-6.87-5.55-11-.2-1.38-.23-2.72.13-3.81.51-1.53-1.9-2.18-2.41-.66-.54,1.6-.39,3.51-.13,5.14.71,4.56,3.28,8.62,6.19,12.1v-1.77c-2.92,3.48-5.45,7.53-6,12.13-.2,1.66-.16,3.46.51,5.02.22.52.92.68,1.41.57,5.54-1.14,10.98-4.56,14.67-8.85h-1.77c7.16,6.11,15.93,9.82,25.29,10.8,4.7.49,9.47.29,14.09-.77,5.75-1.31,10.84-4.01,15.49-7.58,2.81-2.16,5.95-4.36,8.3-7.05,1.34-1.53,2.48-3.59,1.24-5.55s-3.43-3.51-5.16-4.95c-4.67-3.89-9.64-7.46-15.39-9.57-5.1-1.87-10.61-2.58-16.02-2.3-10.27.53-20.03,4.32-27.86,11h1.77c-3.84-4.39-9.37-8.07-15.11-9.25-1.57-.32-2.24,2.09-.66,2.41Z"/>
  <path class="cls-1" d="m70.04,62.83c-3.2-3.89-5.23-9.53-4.65-14.55.47-4.12,2.55-8.07,5.32-11.11,1.08-1.19-.68-2.96-1.77-1.77-3.23,3.56-5.53,8.07-6.05,12.88-.62,5.71,1.77,11.93,5.39,16.32,1.02,1.24,2.78-.53,1.77-1.77h0Z"/>
  <path class="cls-1" d="m62.39,65.24c.2.25-.12-.18-.15-.23-.09-.14-.17-.28-.26-.43-.26-.44-.49-.9-.72-1.35-.63-1.25-1.19-2.54-1.7-3.85-1.12-2.9-2.16-6.02-2.27-9.16-.12-3.51,1.11-6.97,2.73-10.04,1-1.89,2.15-3.83,3.59-5.43,1.07-1.2-.69-2.97-1.77-1.77-1.65,1.85-3.01,4.05-4.14,6.25-1.74,3.37-3.04,7.15-2.91,10.99.12,3.48,1.22,6.92,2.49,10.14.89,2.25,1.82,4.75,3.35,6.65,1.01,1.26,2.76-.52,1.77-1.77h0Z"/>
  <g>
    <circle class="cls-1" cx="75.81" cy="46.4" r="2.26"/>
    <path class="cls-1" d="m76.69,45.9c.04.08.08.16.12.24l-.13-.3c.08.2.14.4.16.61l-.04-.33c.02.19.02.38,0,.56l.04-.33c-.03.2-.08.4-.16.59l.13-.3c-.08.17-.17.34-.28.49l.2-.25c-.12.15-.25.29-.4.41l.25-.2c-.16.12-.33.22-.51.3l.3-.13c-.2.08-.4.14-.61.16l.33-.04c-.19.02-.38.02-.56,0l.33.04c-.2-.03-.4-.08-.59-.16l.3.13c-.17-.08-.34-.17-.49-.28l.25.2c-.15-.12-.29-.25-.41-.4l.2.25c-.12-.16-.22-.33-.3-.51l.13.3c-.08-.2-.14-.4-.16-.61l.04.33c-.02-.19-.02-.38,0-.56l-.04.33c.03-.2.08-.4.16-.59l-.13.3c.08-.17.17-.34.28-.49l-.2.25c.12-.15.25-.29.4-.41l-.25.2c.16-.12.33-.22.51-.3l-.3.13c.2-.08.4-.14.61-.16l-.33.04c.19-.02.38-.02.56,0l-.33-.04c.2.03.4.08.59.16l-.3-.13c.17.08.34.17.49.28l-.25-.2c.15.12.29.25.41.4l-.2-.25c.07.09.13.18.18.27.33.56,1.14.82,1.71.45s.81-1.11.45-1.71-.87-1.1-1.48-1.38c-.74-.34-1.47-.43-2.27-.29-1.34.23-2.49,1.41-2.72,2.74-.14.8-.03,1.55.31,2.29.28.6.81,1.14,1.39,1.46s1.29.51,1.96.45c.81-.07,1.52-.37,2.14-.91,1.24-1.07,1.46-2.96.67-4.35-.32-.57-1.15-.81-1.71-.45s-.79,1.1-.45,1.71Z"/>
  </g>
</svg>