<svg width="25" height="25" viewBox="0 0 25 25" fill="none" xmlns="http://www.w3.org/2000/svg">
<path d="M0.0673828 10.6466C0.0673828 15.9988 4.46452 20.3536 9.86883 20.3536C12.006 20.3536 13.9589 19.6725 15.5679 18.529L21.6109 24.5259C21.8934 24.8058 22.2619 24.9396 22.655 24.9396C23.4901 24.9396 24.0674 24.3191 24.0674 23.5041C24.0674 23.1149 23.92 22.7621 23.6621 22.5068L17.656 16.522C18.921 14.892 19.6702 12.8605 19.6702 10.6466C19.6702 5.29436 15.2731 0.939575 9.86883 0.939575C4.46452 0.939575 0.0673828 5.29436 0.0673828 10.6466ZM2.16769 10.6466C2.16769 6.43779 5.61908 3.01965 9.86883 3.01965C14.1186 3.01965 17.57 6.43779 17.57 10.6466C17.57 14.8555 14.1186 18.2735 9.86883 18.2735C5.61908 18.2735 2.16769 14.8555 2.16769 10.6466Z" fill="#A5682E"/>
</svg>
