<svg width="28" height="25" viewBox="0 0 28 25" fill="none" xmlns="http://www.w3.org/2000/svg">
<path d="M16.4996 23.0998H10.663V15.5464C10.663 15.0207 11.0136 14.6779 11.5339 14.6779H15.6399C16.1603 14.6779 16.4996 15.0207 16.4996 15.5464V23.0998ZM3.61604 22.4142C3.61604 24.0025 4.56619 24.9396 6.16108 24.9396H21.0354C22.6303 24.9396 23.5691 24.0025 23.5691 22.4142V13.3638L14.2713 5.49044C13.8414 5.12477 13.3324 5.13621 12.9139 5.49044L3.61604 13.3638V22.4142ZM0.0869141 12.2211C0.0869141 12.6896 0.448875 13.1353 1.05969 13.1353C1.3764 13.1353 1.63656 12.9638 1.8741 12.7696L13.1967 3.17073C13.4455 2.94219 13.751 2.94219 13.9998 3.17073L25.3224 12.7696C25.5486 12.9638 25.8088 13.1353 26.1255 13.1353C26.6572 13.1353 27.0869 12.8039 27.0869 12.2553C27.0869 11.9125 26.9739 11.684 26.7363 11.4783L14.9613 1.4795C14.1242 0.759589 13.0836 0.759589 12.2353 1.4795L0.448875 11.4783C0.200027 11.684 0.0869141 11.9582 0.0869141 12.2211ZM20.7301 7.0674L23.5691 9.48996V4.2106C23.5691 3.7078 23.2524 3.38785 22.7547 3.38785H21.5444C21.0581 3.38785 20.7301 3.7078 20.7301 4.2106V7.0674Z" fill="#A5682E"/>
</svg>
