<svg width="56" height="56" viewBox="0 0 56 56" fill="none" xmlns="http://www.w3.org/2000/svg">
<rect x="0.636475" y="0.0685883" width="55" height="55" rx="10" fill="#FFFADD"/>
<path d="M29.0669 40.3987C27.7096 39.8156 26.5924 40.7858 25.3135 41.168C24.0346 41.5502 22.5401 41.7119 21.4033 40.9475C20.6144 40.4183 20.0509 39.5461 19.5658 38.7523C18.9337 37.7086 18.4094 36.5963 17.9586 35.4644C17.1354 33.3917 16.3759 31.1181 16.4396 28.8592C16.5131 26.2573 17.7822 23.8759 20.0117 22.4941C22.2412 21.1123 24.8823 21.8718 27.0089 23.2585C27.3029 23.4496 27.6067 23.7485 27.9497 23.8514C28.4936 24.0131 28.8758 23.675 29.2825 23.3859C30.2233 22.7244 31.2621 22.1805 32.3842 21.9012C35.1772 21.2054 37.7987 23.087 39.0286 25.5223C40.087 27.6293 39.9792 30.0058 39.4059 32.2255C38.7493 34.7686 37.7497 37.3656 36.2405 39.5314C35.5986 40.4526 34.8734 41.2072 33.7366 41.4375C32.1441 41.7609 30.4732 41.1141 29.0718 40.4036C28.3711 40.0508 27.7488 41.1043 28.4544 41.462C30.8309 42.6625 34.0502 43.5592 36.2111 41.4718C38.0094 39.7323 39.0678 37.1304 39.891 34.8176C40.7142 32.5048 41.361 29.9029 40.9102 27.3647C40.4104 24.5521 38.47 21.9943 35.7946 20.9065C33.3691 19.9216 30.287 20.9212 28.3515 22.5627L28.2878 22.6117C28.1212 22.7195 28.1212 22.7391 28.2878 22.6656C28.2437 22.646 28.1653 22.5872 28.131 22.548C28.0232 22.4206 27.8174 22.3275 27.6802 22.2344C27.1804 21.9061 26.661 21.6121 26.1171 21.3622C24.8529 20.7742 23.4466 20.3675 22.0354 20.5047C19.1346 20.784 16.6993 23.283 15.7536 25.9192C14.8716 28.3741 15.2195 30.9613 15.9447 33.4015C16.7483 36.1014 17.89 39.0708 19.8255 41.1778C20.8055 42.246 22.1187 42.7458 23.5691 42.7066C24.456 42.6821 25.338 42.4812 26.171 42.1823C26.5483 42.0451 26.9158 41.8932 27.2833 41.7266C27.6508 41.56 28.0281 41.2807 28.4495 41.462C29.1649 41.7707 29.7921 40.7123 29.0669 40.4036V40.3987Z" fill="#775B43"/>
<path d="M16.0905 14.4532C16.5364 15.5802 17.3792 16.5798 18.3249 17.3246C19.8586 18.53 21.7402 18.9906 23.661 18.6672C24.2637 18.5643 24.8468 18.3879 25.4152 18.1527C25.9836 17.9175 26.7921 17.697 26.9538 17.0453C27.091 16.5014 26.6402 15.8644 26.3413 15.4332C25.4593 14.1494 24.2245 13.1106 22.7496 12.5814C21.6863 12.1992 20.5446 12.1502 19.4372 12.3266C18.7316 12.4393 18.0554 12.6598 17.4037 12.9391C16.6981 13.2429 15.9239 13.5418 16.0905 14.4532C16.2326 15.2274 17.4135 14.8991 17.2714 14.1298C17.3302 14.4483 17.3351 14.316 17.585 14.1935C17.7026 14.1347 17.8251 14.0808 17.9476 14.0318C18.1975 13.9289 18.4523 13.8358 18.712 13.7574C19.1628 13.6202 19.6234 13.5124 20.0938 13.4732C20.8729 13.4095 21.6324 13.4928 22.3723 13.7525C23.4895 14.1445 24.494 14.9775 25.1653 15.8938C25.3956 16.2074 25.5377 16.5847 25.7631 16.8934C25.8317 16.9865 25.7533 16.7807 25.7582 16.8787C25.7484 16.5553 25.7141 16.6827 25.5181 16.7758C25.2633 16.8983 24.9987 17.0159 24.7341 17.109C24.2588 17.2805 23.7688 17.4177 23.269 17.4961C21.8088 17.7166 20.3486 17.3344 19.1726 16.4426C18.7022 16.0849 18.2367 15.6096 17.9084 15.1686C17.7565 14.9677 17.6144 14.757 17.487 14.5365C17.4331 14.4434 17.3792 14.3454 17.3302 14.2474C17.2665 14.1249 17.2469 14.0661 17.2714 14.1249C16.9872 13.3997 15.8014 13.7182 16.0905 14.4483V14.4532Z" fill="#775B43"/>
<path d="M28.9738 22.597C27.9595 19.7207 27.9595 16.6141 28.9738 13.7427C29.2384 12.9979 28.0526 12.6794 27.7929 13.4193C26.7149 16.4818 26.7149 19.8628 27.7929 22.9253C28.0526 23.6652 29.2384 23.3467 28.9738 22.6019V22.597Z" fill="#775B43"/>
</svg>
