<svg width="18" height="25" viewBox="0 0 18 25" fill="none" xmlns="http://www.w3.org/2000/svg">
<path d="M4.86613 12.0729C4.381 12.0729 3.97672 11.6668 3.97672 11.2012C3.97672 10.7258 4.381 10.3296 4.86613 10.3296C5.35127 10.3296 5.75556 10.7159 5.75556 11.2012C5.75556 11.6766 5.35127 12.0729 4.86613 12.0729ZM4.86613 15.6882C4.3709 15.6882 3.97672 15.292 3.97672 14.8165C3.97672 14.3412 4.3709 13.9548 4.86613 13.9548C5.35127 13.9548 5.75556 14.3312 5.75556 14.8165C5.75556 15.292 5.35127 15.6882 4.86613 15.6882ZM4.86613 19.5115C4.381 19.5115 3.97672 19.1154 3.97672 18.64C3.97672 18.1744 4.381 17.7683 4.86613 17.7683C5.35127 17.7683 5.75556 18.1645 5.75556 18.64C5.75556 19.1253 5.35127 19.5115 4.86613 19.5115ZM7.65568 11.8352C7.29182 11.8352 6.9886 11.5479 6.9886 11.2012C6.9886 10.8546 7.29182 10.5475 7.65568 10.5475H13.9018C14.2555 10.5475 14.5486 10.8546 14.5486 11.2012C14.5486 11.5479 14.2555 11.8352 13.9018 11.8352H7.65568ZM7.65568 15.4604C7.28171 15.4604 6.9886 15.1732 6.9886 14.8165C6.9886 14.46 7.28171 14.1826 7.65568 14.1826H13.9018C14.2657 14.1826 14.5486 14.46 14.5486 14.8165C14.5486 15.1732 14.2657 15.4604 13.9018 15.4604H7.65568ZM7.65568 19.2837C7.29182 19.2837 6.9886 18.9867 6.9886 18.64C6.9886 18.2933 7.28171 18.0061 7.65568 18.0061H13.9018C14.2657 18.0061 14.5486 18.2933 14.5486 18.64C14.5486 18.9867 14.2555 19.2837 13.9018 19.2837H7.65568ZM3.89586 24.9396H14.6295C16.7216 24.9396 17.7627 23.9095 17.7627 21.8294V6.80337C17.7627 4.72331 16.7216 3.69318 14.7306 3.69318H14.4981C14.4981 3.7328 14.4981 3.78232 14.4981 3.82195V4.99074C14.4981 6.23879 13.639 7.12034 12.3858 7.12034H6.13962C4.88636 7.12034 4.02726 6.23879 4.02726 4.99074V3.82195C4.02726 3.78232 4.02726 3.7328 4.02726 3.69318H3.7948C1.80372 3.69318 0.762695 4.72331 0.762695 6.80337V21.8294C0.762695 23.9095 1.80372 24.9396 3.89586 24.9396ZM6.13962 5.97135H12.3858C12.972 5.97135 13.3257 5.60486 13.3257 4.99074V3.95071C13.3257 3.3366 12.972 2.97011 12.3858 2.97011H11.4559C11.3852 1.85084 10.4351 0.939568 9.26268 0.939568C8.09027 0.939568 7.14022 1.85084 7.06947 2.97011H6.13962C5.55342 2.97011 5.19967 3.3366 5.19967 3.95071V4.99074C5.19967 5.60486 5.55342 5.97135 6.13962 5.97135ZM9.26268 3.91109C8.77755 3.91109 8.38337 3.51489 8.38337 3.04935C8.38337 2.564 8.77755 2.1777 9.26268 2.1777C9.74782 2.1777 10.142 2.564 10.142 3.04935C10.142 3.51489 9.74782 3.91109 9.26268 3.91109Z" fill="#A5682E"/>
</svg>
