<svg width="27" height="28" viewBox="0 0 27 28" fill="none" xmlns="http://www.w3.org/2000/svg">
<g clip-path="url(#clip0_1149_3350)">
<rect x="0.0078125" y="0.211914" width="26.9869" height="27" rx="13.4934" fill="#FFFADD"/>
<path d="M13.5012 27.1988C20.883 27.1988 26.9947 21.0738 26.9947 13.7053C26.9947 6.32364 20.8697 0.211914 13.488 0.211914C6.11954 0.211914 0.0078125 6.32364 0.0078125 13.7053C0.0078125 21.0738 6.13276 27.1988 13.5012 27.1988ZM12.0196 20.1742C11.5698 20.1742 11.1994 19.989 10.8555 19.526L7.53502 15.4515C7.33659 15.187 7.21753 14.8959 7.21753 14.5916C7.21753 13.9964 7.68053 13.5069 8.27584 13.5069C8.65947 13.5069 8.9505 13.6259 9.28122 14.0625L11.9667 17.5285L17.6153 8.45347C17.8667 8.05662 18.2107 7.84496 18.5546 7.84496C19.1367 7.84496 19.6791 8.24181 19.6791 8.86357C19.6791 9.1546 19.5071 9.45887 19.3483 9.73668L13.1308 19.526C12.853 19.9626 12.4694 20.1742 12.0196 20.1742Z" fill="#775B43"/>
</g>
<defs>
<clipPath id="clip0_1149_3350">
<rect x="0.0078125" y="0.211914" width="26.9869" height="27" rx="13.4934" fill="white"/>
</clipPath>
</defs>
</svg>
