<svg width="25" height="26" viewBox="0 0 25 26" fill="none" xmlns="http://www.w3.org/2000/svg">
<circle cx="10.8122" cy="10.8163" r="6.30437" fill="#A5682E"/>
<path d="M0.933594 10.7815C0.933594 16.1993 5.34172 20.6074 10.7595 20.6074C12.9021 20.6074 14.8598 19.918 16.4729 18.7605L22.531 24.8308C22.8142 25.1142 23.1836 25.2496 23.5776 25.2496C24.4149 25.2496 24.9936 24.6215 24.9936 23.7966C24.9936 23.4025 24.8458 23.0455 24.5873 22.787L18.5662 16.7288C19.8343 15.0789 20.5855 13.0225 20.5855 10.7815C20.5855 5.3637 16.1773 0.955566 10.7595 0.955566C5.34172 0.955566 0.933594 5.3637 0.933594 10.7815ZM3.03915 10.7815C3.03915 6.52114 6.49917 3.06113 10.7595 3.06113C15.02 3.06113 18.4799 6.52114 18.4799 10.7815C18.4799 15.0419 15.02 18.5019 10.7595 18.5019C6.49917 18.5019 3.03915 15.0419 3.03915 10.7815Z" fill="#A5682E"/>
</svg>
