<svg width="75" height="75" viewBox="0 0 75 75" fill="none" xmlns="http://www.w3.org/2000/svg">
<path d="M36.229 74.7302C34.7382 74.7302 33.2473 74.7467 31.7565 74.7302C29.1455 74.7055 26.9545 72.5393 26.8557 69.92C26.798 68.2892 25.6449 66.7818 24.1129 66.23C14.2536 62.68 6.78292 56.4366 2.54103 46.7091C-0.92661 38.7525 -0.70422 30.697 2.35159 22.6662C2.85402 21.3484 2.95286 20.1705 2.41748 18.8362C1.4785 16.497 2.08801 14.1495 3.85066 12.8728C5.15205 11.9256 6.54405 11.7197 8.05136 12.4198C8.34788 12.5598 8.84208 12.5598 9.13037 12.4033C10.6542 11.5879 12.145 10.7231 13.6276 9.84173C15.4067 8.7792 17.1941 7.73314 18.9155 6.58001C20.5464 5.49277 22.1196 4.30668 23.6681 3.10413C25.5378 1.65448 27.4817 0.386029 29.8868 0.073035C32.0201 -0.198775 34.0463 0.336608 36.0808 0.880229C37.9505 1.38267 39.8037 2.07455 41.7064 2.25575C43.6832 2.4452 45.7177 2.09926 47.7274 2.03336C49.6301 1.96747 51.5492 1.83568 53.4354 1.96747C55.0828 2.08278 56.4006 3.1206 57.5126 4.28197C59.0034 5.83871 60.3789 7.49428 61.8451 9.06748C63.0723 10.3853 64.3408 11.6785 65.6339 12.9387C65.9387 13.2352 66.3917 13.4164 66.8118 13.5318C68.8298 14.0919 70.1559 15.7227 70.2959 17.7901C70.3371 18.3337 70.5265 18.8774 70.683 19.4045C71.6055 22.4191 72.7916 25.3761 73.4341 28.4484C75.3203 37.4181 73.3023 45.6383 68.0308 53.0596C63.4759 59.4677 57.2984 63.7096 49.8937 66.23C49.4406 66.3865 49.0041 66.5842 48.5428 66.6995C46.8626 67.136 46.1624 68.2892 46.0142 69.9447C45.7671 72.7205 43.642 74.6561 40.858 74.7055C39.3178 74.7302 37.7693 74.7055 36.229 74.7055V74.7302ZM29.162 67.622C29.2526 68.4127 29.3349 69.1458 29.4338 69.8706C29.615 71.2379 30.6281 72.1522 32.0613 72.1686C34.8535 72.1933 37.6457 72.1933 40.4462 72.1686C42.3818 72.1439 43.2631 71.345 43.4855 69.4258C43.7821 66.8313 45.174 65.1345 47.5956 64.2532C48.1393 64.0555 48.7076 63.9072 49.2594 63.7178C57.0349 61.0409 63.2288 56.3542 67.4542 49.246C70.8231 43.5791 72.1244 37.4593 71.2925 30.8864C70.9137 27.913 69.8594 25.129 68.9533 22.3038C68.4674 20.7965 68.0967 19.2562 67.7178 17.716C67.4625 16.6782 66.7377 16.0192 65.6339 15.9781C65.0739 15.9533 64.5138 15.9533 63.9619 15.9781C62.7923 16.0357 61.7709 15.6568 60.8484 14.9567C60.066 14.3637 59.2752 13.7789 58.4928 13.1858C57.8668 12.7081 57.1749 12.601 56.4583 12.8564C54.5639 13.5318 53.0154 14.5284 52.9 16.8182C52.8918 17.0488 52.8012 17.2877 52.7271 17.5101C52.3729 18.6797 51.6398 19.5363 50.635 20.2282C49.6795 20.8789 48.6664 21.5213 47.9086 22.3779C46.3437 24.1571 44.5151 25.3184 42.1265 25.5079C41.6817 25.5408 41.2369 25.6479 40.7921 25.7467C39.9191 25.9444 39.3178 26.4469 39.1036 27.3529C39.0213 27.7153 38.9224 28.0695 38.8318 28.4319C38.42 30.1287 37.4233 31.3147 35.776 31.949C34.8123 32.3196 33.8651 32.7314 32.8932 33.0856C32.0613 33.3904 31.5671 33.9422 31.1799 34.7412C30.3892 36.3803 30.068 38.11 29.928 39.8891C29.3926 46.602 30.5704 52.9937 33.4944 59.0806C34.9194 62.0375 36.7562 64.5497 39.8696 65.9088C40.6027 66.23 40.8251 66.996 40.5039 67.6467C40.1909 68.2892 39.4743 68.528 38.733 68.1986C36.5914 67.2678 34.7711 65.9005 33.4121 63.9979C31.0152 60.6538 29.5738 56.8731 28.4618 52.936C28.2724 52.2771 27.9265 51.6099 27.4817 51.0992C26.2709 49.7072 25.1754 48.2493 24.4423 46.5443C23.3469 43.991 22.935 41.347 23.3551 38.596C23.4704 37.8217 24.0387 37.4016 24.7389 37.4675C25.4307 37.5334 25.9002 38.0853 25.9085 38.8431C25.9085 38.9996 25.8755 39.1643 25.8838 39.3208C25.9497 40.6634 25.9167 42.0306 26.1391 43.3568C26.3038 44.3781 26.798 45.3418 27.1275 46.289C27.2675 43.5544 27.2675 40.8363 27.564 38.1512C27.9841 34.4117 29.2278 31.1253 33.4368 30.0957C35.3065 29.6345 36.3279 28.5555 36.682 26.5786C36.9868 24.8325 38.2552 23.7288 40.0097 23.2922C40.9816 23.0534 41.9782 22.8639 42.9996 22.6415C42.5795 21.5049 42.1677 20.4176 41.7641 19.3304C41.2204 17.8807 41.2204 17.856 39.672 17.889C38.9389 17.9054 38.0905 17.7901 37.5057 18.1196C34.8947 19.5775 32.1519 19.9564 29.2608 19.3798C27.3417 19.0009 25.4472 18.4491 23.5116 18.1278C22.4491 17.9549 21.2877 17.5924 20.2663 18.3337C19.2532 19.0668 18.6355 20.0964 18.0672 21.2495C20.011 22.2626 21.1806 23.8688 22.0455 25.7467C23.3798 28.6296 24.1952 31.6772 24.7965 34.7824C24.986 35.7625 24.5824 36.4297 23.7999 36.5533C23.0092 36.6768 22.4985 36.1744 22.2514 35.2107C21.6913 33.028 21.1312 30.8452 20.4723 28.6955C19.5992 25.8456 17.9354 23.7288 15.0443 22.5344C13.7759 22.0155 12.6639 20.953 11.6755 19.9399C10.3659 18.5891 9.28686 17.0159 8.03489 15.6074C7.44185 14.9402 6.70879 14.2813 5.67096 14.8002C4.63314 15.3274 4.58372 16.2828 4.6908 17.2794C4.71551 17.543 4.76493 17.8148 4.88024 18.0455C5.77804 19.9069 5.53918 21.7108 4.80611 23.5887C2.88697 28.4978 2.1292 33.5881 2.96934 38.8348C4.04834 45.5477 7.1618 51.2145 12.0462 55.9012C13.4299 57.2355 14.9784 58.3969 16.4445 59.6324C15.555 58.1333 14.443 56.8567 13.5617 55.4317C10.3988 50.325 8.22433 44.8311 7.21946 38.8925C6.99707 37.5911 7.29359 36.8827 8.18315 36.7427C9.01505 36.6109 9.48454 37.204 9.79754 38.423C10.4647 41.0917 11.1236 43.7768 11.9638 46.3961C12.5156 48.1093 13.3805 49.7237 14.163 51.5275C15.102 49.1718 15.7197 44.271 15.4314 41.9895C15.3161 41.0752 15.7032 40.4327 16.4692 40.2845C17.1941 40.1362 17.886 40.6387 17.9601 41.5529C18.0672 42.8955 18.2154 44.2875 18.0013 45.5971C17.54 48.4223 16.8481 51.1981 16.288 54.0068C16.2221 54.328 16.2633 54.7728 16.4445 55.0281C20.357 60.7032 25.6778 64.2367 32.4813 65.4804C33.305 65.6287 33.8404 66.2053 33.758 66.9301C33.6757 67.6714 33.0744 68.1327 32.2013 68.0421C31.2047 67.935 30.2163 67.7702 29.2031 67.6302L29.162 67.622ZM45.2647 21.3072C45.8495 20.7141 46.3107 20.2035 46.8214 19.7422C47.3073 19.2974 47.7768 18.7538 48.3616 18.5149C49.696 17.9631 50.2973 16.9912 50.5279 15.6239C50.7338 14.4131 51.0138 13.0952 52.0929 12.4116C53.4601 11.5385 54.9592 10.8384 56.4665 10.2371C57.4385 9.84997 58.4516 10.2289 59.3741 10.6983C59.5718 10.7972 59.7694 10.9043 59.9671 11.0113C60.0248 10.9454 60.0824 10.8795 60.1401 10.8137C58.361 9.00159 56.6065 7.15657 54.7945 5.37745C53.979 4.57026 52.9577 4.37258 51.8458 4.79265C51.1786 5.04799 50.4867 5.24567 49.836 5.53395C46.6237 6.95066 43.8068 8.98512 41.0722 11.1514C40.3721 11.7032 39.5649 11.6373 39.0954 11.0278C38.6424 10.4348 38.7742 9.69347 39.4496 9.14161C40.1744 8.55681 40.9075 7.98024 41.657 7.43662C42.7689 6.63766 43.9138 5.87165 45.1493 5.01504C44.095 5.01504 43.1478 5.1633 42.2665 4.99033C39.8284 4.49613 37.4316 3.82072 34.9935 3.31828C33.4944 3.00529 31.9624 2.65111 30.4551 2.70053C27.7288 2.79114 25.8755 4.69381 23.8575 6.32467C26.3862 7.02479 26.4439 7.09892 27.457 9.40519C27.5805 9.69347 28.0171 9.91586 28.3548 10.0065C28.6678 10.0971 29.0384 9.96528 29.3843 9.94057C32.086 9.73465 34.2275 10.6572 35.6607 13.0211C35.9078 13.4329 36.1714 13.8365 36.3608 14.2731C36.682 15.0473 37.2092 15.3521 38.0411 15.2862C38.8071 15.2285 39.5813 15.2615 40.3556 15.2779C42.2583 15.3191 43.2796 16.0439 43.955 17.8395C44.3751 18.9515 44.7952 20.0717 45.2564 21.3072H45.2647ZM34.6723 16.5299C34.2275 15.731 33.8321 14.9814 33.3956 14.2566C32.6214 12.9717 31.4435 12.4363 29.9692 12.5186C29.5408 12.5434 29.1208 12.5845 28.7007 12.601C26.6251 12.6587 25.4719 11.835 24.8871 9.84997C24.7142 9.24869 24.3847 9.04277 23.7916 9.07572C22.4655 9.14985 21.1394 9.19103 19.8133 9.25693C19.5827 9.2734 19.3356 9.33106 19.1379 9.44637C16.3457 11.1761 13.5617 12.914 10.7036 14.6931C12.4168 16.4146 13.4134 18.8115 15.7032 19.9975C16.1398 19.3139 16.5022 18.7044 16.914 18.1196C18.3884 15.9863 20.3487 14.9238 22.9927 15.4509C24.5 15.7474 25.9991 16.0769 27.4981 16.3981C29.8621 16.9006 32.226 17.4771 34.6723 16.5299Z" fill="#59BD70"/>
<path d="M51.4091 55.687C51.0797 56.206 50.7255 56.8237 50.3054 57.4003C49.4653 58.5616 48.5839 59.6983 47.7273 60.8432C47.2578 61.4774 47.3237 62.2599 47.8591 62.7047C48.4274 63.1742 49.1358 63.1001 49.7041 62.4988C49.8359 62.367 49.9595 62.227 50.0665 62.0705C51.6974 59.5912 53.32 57.0955 54.9756 54.6245C55.1898 54.295 55.511 53.9738 55.8569 53.8091C57.4548 53.0266 59.0939 52.343 60.6836 51.544C62.6769 50.5309 64.6372 49.4601 66.2351 47.8457C66.927 47.1374 66.9682 46.3714 66.3999 45.8113C65.8315 45.2594 65.0985 45.3583 64.3736 46.0419C62.2321 48.0516 59.5799 49.1965 56.8371 50.5309C56.9771 50.1438 57.0677 49.9296 57.1254 49.7155C57.7349 47.5163 58.3609 45.3253 58.9127 43.1179C59.028 42.6731 59.1928 42.4754 59.5881 42.2695C61.532 41.2399 63.5006 40.2433 65.3538 39.0737C66.8035 38.1594 67.9484 36.8745 68.7556 35.3342C69.2168 34.4529 69.0438 33.7198 68.319 33.3492C67.6189 32.995 67.0176 33.308 66.4658 34.074C65.8398 34.9553 65.2055 35.8943 64.3654 36.5368C63.0228 37.5581 61.5073 38.3653 60.0576 39.2466C59.8929 39.3455 59.687 39.3784 59.4563 39.4608C59.4563 39.2796 59.4563 39.1725 59.4563 39.0654C59.8023 35.0377 59.6376 31.0429 58.8057 27.0811C58.608 26.1339 58.0479 25.6561 57.3148 25.7797C56.5241 25.9115 56.1205 26.5951 56.2523 27.5341C56.4829 29.2144 56.7712 30.8947 56.9277 32.5832C57.2324 35.9849 56.9689 39.362 56.3182 42.879C54.7697 41.6188 53.2624 40.4986 51.8704 39.2384C49.5723 37.1628 47.0354 35.293 45.767 32.2949C45.5199 31.7101 44.9269 31.4712 44.2844 31.6936C43.6255 31.9242 43.2878 32.4184 43.4195 33.1186C43.5019 33.5551 43.6419 34.0164 43.8973 34.3705C44.6798 35.4742 45.4458 36.6027 46.36 37.5911C48.9628 40.4245 51.9692 42.8049 55.0415 45.0947C55.5604 45.4818 55.6922 45.8195 55.4616 46.4125C55.0909 47.3762 54.8438 48.3894 54.4649 49.3448C53.9543 50.638 53.3694 51.9064 52.7929 53.2572C52.1422 52.7877 51.5986 52.4088 51.0714 52.0052C46.9037 48.8671 42.7359 45.7207 39.153 41.9071C38.4281 41.1328 37.9092 40.1527 37.3656 39.2219C37.0032 38.6042 36.369 38.2582 35.7018 38.4889C35.0676 38.703 34.664 39.4196 34.9275 40.1033C35.1911 40.7869 35.4876 41.52 35.9736 42.0553C37.4974 43.7521 38.9882 45.5148 40.7179 46.9974C44.1691 49.9543 47.7603 52.7383 51.4009 55.6788L51.4091 55.687Z" fill="white"/>
<path d="M51.4096 55.6871C47.769 52.7466 44.1778 49.9626 40.7266 47.0057C38.9969 45.5231 37.5061 43.7686 35.9823 42.0637C35.5046 41.5283 35.208 40.7952 34.9362 40.1116C34.6727 39.4279 35.068 38.7113 35.7105 38.4972C36.3777 38.2665 37.0119 38.6125 37.3743 39.2302C37.9179 40.161 38.4368 41.1411 39.1617 41.9154C42.7446 45.729 46.9124 48.8754 51.0801 52.0135C51.6073 52.4089 52.1509 52.7878 52.8016 53.2655C53.3864 51.9147 53.9629 50.6545 54.4736 49.3531C54.8525 48.3894 55.0996 47.3845 55.4703 46.4209C55.7009 45.8196 55.5691 45.4901 55.0502 45.103C51.9779 42.8132 48.9633 40.4328 46.3687 37.5994C45.4545 36.611 44.6885 35.4825 43.906 34.3788C43.6589 34.0247 43.5106 33.5634 43.4282 33.1269C43.2965 32.4267 43.6424 31.9325 44.2931 31.7019C44.9438 31.4713 45.5286 31.7184 45.7757 32.3032C47.0441 35.3013 49.581 37.1793 51.8791 39.2467C53.2711 40.5069 54.7784 41.6271 56.3269 42.8873C56.9776 39.3703 57.2411 35.9932 56.9364 32.5915C56.7881 30.903 56.4998 29.2227 56.261 27.5424C56.1292 26.6034 56.5328 25.9198 57.3235 25.788C58.0566 25.6644 58.6167 26.1422 58.8144 27.0894C59.6463 31.0512 59.8028 35.046 59.465 39.0737C59.4568 39.1808 59.465 39.2797 59.465 39.4691C59.6957 39.3867 59.9016 39.3538 60.0663 39.2549C61.516 38.3736 63.0315 37.5664 64.3741 36.5451C65.2142 35.9026 65.8485 34.9636 66.4745 34.0823C67.0263 33.3081 67.6276 32.9951 68.3277 33.3575C69.0525 33.7281 69.2255 34.4612 68.7643 35.3425C67.9571 36.8828 66.8122 38.1677 65.3625 39.082C63.501 40.2516 61.5407 41.2482 59.5968 42.2778C59.2015 42.4837 59.0367 42.6896 58.9214 43.1262C58.3613 45.3336 57.7353 47.5246 57.1341 49.7238C57.0764 49.9461 56.9858 50.1521 56.8458 50.5392C59.5886 49.2048 62.2408 48.0599 64.3823 46.0502C65.1072 45.3666 65.8402 45.2677 66.4086 45.8196C66.9769 46.3797 66.9357 47.1539 66.2438 47.854C64.6542 49.4684 62.6856 50.5392 60.6923 51.5523C59.1109 52.3595 57.4635 53.0349 55.8656 53.8174C55.5197 53.9904 55.2067 54.3116 54.9843 54.6328C53.337 57.1038 51.7143 59.5913 50.0752 62.0788C49.9764 62.2353 49.8446 62.3753 49.7128 62.5071C49.1445 63.1083 48.4361 63.1825 47.8678 62.713C47.3324 62.2682 47.2665 61.4857 47.736 60.8515C48.5926 59.6984 49.474 58.5699 50.3141 57.4086C50.7342 56.832 51.0884 56.2143 51.4178 55.6953L51.4096 55.6871Z" fill="#59BD70"/>
</svg>
